SplineFontDB: 3.0
FontName: Bodoni-16-Fatface-Italic
FullName: Bodoni* 16 Fatface Italic
FamilyName: Bodoni* 16 Fatface
Weight: Fatface
Copyright: Copyright (c) 2017, Owen Earl,,, (EwonRael@yahoo.com)
Version: 001.2
ItalicAngle: -13
UnderlinePosition: -800
UnderlineWidth: 400
Ascent: 6400
Descent: 1600
InvalidEm: 0
LayerCount: 2
Layer: 0 0 "Back" 1
Layer: 1 0 "Fore" 0
PreferredKerning: 4
XUID: [1021 31 -699969567 16487490]
FSType: 0
OS2Version: 0
OS2_WeightWidthSlopeOnly: 0
OS2_UseTypoMetrics: 1
CreationTime: 1460762150
ModificationTime: 1548990251
PfmFamily: 17
TTFWeight: 900
TTFWidth: 5
LineGap: 800
VLineGap: 0
OS2TypoAscent: 6400
OS2TypoAOffset: 0
OS2TypoDescent: -1600
OS2TypoDOffset: 0
OS2TypoLinegap: 800
OS2WinAscent: 8000
OS2WinAOffset: 0
OS2WinDescent: 3200
OS2WinDOffset: 0
HheadAscent: 8000
HheadAOffset: 0
HheadDescent: -1600
HheadDOffset: 0
OS2CapHeight: 700
OS2XHeight: 460
OS2FamilyClass: 768
OS2Vendor: 'PfEd'
OS2UnicodeRanges: 00000001.00000000.00000000.00000000
Lookup: 1 0 0 "'ss04' Style Set 4 lookup 5" { "'ss04' Style Set 4 lookup 5-1"  } ['ss04' ('DFLT' <'dflt' > 'grek' <'dflt' > 'latn' <'dflt' > ) ]
Lookup: 1 0 0 "'ss02' Style Set 2 lookup 4" { "'ss02' Style Set 2 lookup 4-1"  } ['ss02' ('DFLT' <'dflt' > 'grek' <'dflt' > 'latn' <'dflt' > ) ]
Lookup: 1 0 0 "'ss03' Style Set 3 lookup 5" { "'ss03' Style Set 3 lookup 5-1"  } ['ss03' ('DFLT' <'dflt' > 'grek' <'dflt' > 'latn' <'dflt' > ) ]
Lookup: 1 0 0 "'ss01' Style Set 1 lookup 2" { "'ss01' Style Set 1 lookup 2-1"  } ['ss01' ('DFLT' <'dflt' > 'grek' <'dflt' > 'latn' <'dflt' > ) ]
Lookup: 5 0 0 "'calt' Contextual Alternates lookup 3" { "'calt' Contextual Alternates lookup 3-1"  } ['calt' ('DFLT' <'dflt' > 'grek' <'dflt' > 'latn' <'dflt' > ) ]
Lookup: 4 0 1 "'liga' Standard Ligatures lookup 0" { "'liga' Standard Ligatures lookup 0-1"  } ['liga' ('DFLT' <'dflt' > 'grek' <'dflt' > 'latn' <'dflt' > ) ]

StartChar: ampersand
Encoding: 38 38 0
GlifName: ampersand
Width: 7112
Flags: HMW
LayerCount: 2
Fore
SplineSet
3416 216 m 0
 4888 216 6600 1440 6672 2576 c 2
 6680 2696 l 17
 6584 2184 6200 1880 5768 1880 c 0
 5288 1880 4944 2296 4944 2736 c 0
 4944 3216 5384 3592 5840 3592 c 0
 6304 3592 6792 3216 6792 2608 c 0
 6792 1488 5072 -80 2472 -80 c 0
 1408 -80 160 104 160 1200 c 0
 160 2920 3928 2840 3928 5168 c 0
 3928 5504 3896 5984 3632 5984 c 0
 3360 5984 3304 5464 3304 4960 c 0
 3304 4680 3400 4216 3696 3760 c 2
 5568 760 l 2
 5784 416 5952 168 6272 168 c 0
 6520 168 6712 280 6872 592 c 1
 6952 560 l 1
 6800 208 6472 -80 5680 -80 c 0
 5096 -80 4408 24 3768 968 c 2
 1952 3760 l 2
 1728 4088 1664 4384 1664 4664 c 0
 1664 5464 2664 6080 3752 6080 c 0
 4448 6080 5480 5824 5480 5056 c 0
 5480 3744 1840 4104 1840 1440 c 0
 1840 464 2744 216 3416 216 c 0
EndSplineSet
EndChar

StartChar: period
Encoding: 46 46 1
GlifName: period
Width: 2560
Flags: HMW
LayerCount: 2
Fore
SplineSet
320 880 m 0
 320 1408 752 1840 1280 1840 c 0
 1808 1840 2240 1408 2240 880 c 0
 2240 352 1808 -80 1280 -80 c 0
 752 -80 320 352 320 880 c 0
EndSplineSet
EndChar

StartChar: zero
Encoding: 48 48 2
GlifName: zero
Width: 5600
Flags: HMW
LayerCount: 2
Fore
SplineSet
3856 6080 m 0
 5040 6080 5784 5160 5784 4128 c 0
 5784 1816 4184 -80 2496 -80 c 0
 1312 -80 568 840 568 1872 c 0
 568 4184 2168 6080 3856 6080 c 0
3856 5984 m 0
 2968 5984 2152 2040 2152 752 c 0
 2152 272 2200 16 2496 16 c 0
 3384 16 4200 4120 4200 5248 c 0
 4200 5728 4152 5984 3856 5984 c 0
EndSplineSet
EndChar

StartChar: one
Encoding: 49 49 3
GlifName: one
Width: 4440
VWidth: 9240
Flags: HMW
LayerCount: 2
Fore
SplineSet
-320 112 m 1
 3160 112 l 1
 3160 0 l 1
 -320 0 l 1
 -320 112 l 1
1888 5888 m 1
 976 5888 l 1
 976 6000 l 1
 3640 6000 l 1
 2280 0 l 1
 560 0 l 1
 1888 5888 l 1
EndSplineSet
EndChar

StartChar: two
Encoding: 50 50 4
GlifName: two
Width: 5280
VWidth: 9240
Flags: HMW
LayerCount: 2
Fore
SplineSet
928 4424 m 1
 1016 4744 1376 5056 1808 5056 c 0
 2304 5056 2656 4712 2656 4248 c 0
 2656 3688 2136 3296 1696 3296 c 0
 1256 3296 760 3576 760 4232 c 0
 760 5168 1904 6080 3320 6080 c 0
 4128 6080 5176 5840 5176 4832 c 0
 5176 3760 3328 3008 2528 2520 c 2
 1160 1680 l 1
 4552 1680 l 1
 4696 2280 l 1
 4808 2280 l 1
 4272 0 l 1
 -328 0 l 1
 -56 1080 l 1
 1904 2288 l 2
 2880 2888 3400 3968 3400 4752 c 0
 3400 5376 3128 5728 2504 5728 c 0
 1800 5728 984 5064 928 4424 c 1
EndSplineSet
EndChar

StartChar: three
Encoding: 51 51 5
GlifName: three
Width: 5048
VWidth: 9240
Flags: HMW
LayerCount: 2
Fore
SplineSet
1120 4800 m 0
 1120 5536 1992 6072 2968 6072 c 0
 4016 6072 5128 5776 5128 4816 c 0
 5128 3776 3832 3216 1984 3216 c 1
 1984 3296 l 1
 3256 3296 3440 4696 3440 5208 c 0
 3440 5800 3240 5944 2768 5944 c 0
 2328 5944 1816 5736 1568 5448 c 1
 1632 5512 1824 5592 2056 5592 c 0
 2544 5592 2832 5192 2832 4752 c 0
 2832 4272 2416 3904 1976 3904 c 0
 1496 3904 1120 4312 1120 4800 c 0
40 1448 m 0
 40 2016 400 2408 920 2408 c 0
 1400 2408 1752 2008 1752 1560 c 0
 1752 1064 1368 720 896 720 c 0
 640 720 392 832 296 928 c 1
 448 560 920 40 1768 40 c 0
 2720 40 2960 1488 2960 2240 c 0
 2960 2832 2696 3192 1984 3192 c 1
 1984 3272 l 1
 3672 3272 4648 2848 4648 1888 c 0
 4648 560 3136 -80 1848 -80 c 0
 632 -80 40 792 40 1448 c 0
EndSplineSet
EndChar

StartChar: four
Encoding: 52 52 6
GlifName: four
Width: 5808
VWidth: 9240
Flags: HMW
LayerCount: 2
Fore
SplineSet
4800 112 m 1
 4800 0 l 1
 1720 0 l 1
 1720 112 l 1
 4800 112 l 1
5728 6000 m 1
 4120 0 l 1
 2400 0 l 1
 3704 5240 l 1
 576 1776 l 1
 5400 1776 l 1
 5400 1664 l 1
 336 1664 l 1
 4264 6000 l 1
 5728 6000 l 1
EndSplineSet
Substitution2: "'ss03' Style Set 3 lookup 5-1" four.alt
EndChar

StartChar: five
Encoding: 53 53 7
GlifName: five
Width: 5016
VWidth: 9240
Flags: HMW
LayerCount: 2
Fore
SplineSet
4688 2160 m 0
 4688 640 2936 -80 1728 -80 c 0
 592 -80 0 536 0 1272 c 0
 0 1760 376 2168 856 2168 c 0
 1296 2168 1712 1800 1712 1320 c 0
 1712 800 1328 480 856 480 c 0
 552 480 336 648 272 728 c 1
 472 336 888 24 1648 24 c 0
 2680 24 2968 1648 2968 2560 c 0
 2968 3152 2680 3360 2288 3360 c 0
 1816 3360 1248 3136 976 2776 c 1
 872 2776 l 1
 1160 3232 1896 3520 2624 3520 c 0
 3752 3520 4688 3200 4688 2160 c 0
4968 4320 m 1
 1456 4320 l 1
 920 2776 l 1
 824 2776 l 1
 1896 6000 l 1
 5240 6000 l 1
 5344 6440 l 1
 5456 6440 l 1
 4968 4320 l 1
EndSplineSet
EndChar

StartChar: six
Encoding: 54 54 8
GlifName: six
Width: 5280
VWidth: 9240
Flags: HMW
LayerCount: 2
Fore
SplineSet
3360 3120 m 0
 3360 3552 3304 3704 3112 3704 c 0
 2384 3704 2024 1488 2024 640 c 1
 1904 640 l 1
 1904 1488 2080 3960 3400 3960 c 0
 4208 3960 5120 3520 5120 2400 c 0
 5120 880 3640 -80 2272 -80 c 0
 1224 -80 400 480 400 1760 c 0
 400 3784 2576 6080 5320 6080 c 1
 5320 5984 l 1
 3192 5984 2032 3008 2032 1472 c 1
 2024 640 l 1
 2024 288 2120 32 2328 32 c 0
 2888 32 3360 2288 3360 3120 c 0
EndSplineSet
EndChar

StartChar: seven
Encoding: 55 55 9
GlifName: seven
Width: 4864
VWidth: 9240
Flags: HMW
LayerCount: 2
Fore
SplineSet
1088 848 m 0
 1088 1640 2120 2136 2872 2912 c 0
 3392 3448 3600 3680 4096 4280 c 1
 1168 4280 l 1
 1032 3680 l 1
 920 3680 l 1
 1448 6000 l 1
 5664 6000 l 1
 5664 6000 4248 4208 3328 3216 c 0
 2720 2560 2480 2376 2480 2016 c 0
 2480 1672 3008 1392 3008 864 c 0
 3008 328 2608 -80 2016 -80 c 0
 1504 -80 1088 216 1088 848 c 0
EndSplineSet
EndChar

StartChar: eight
Encoding: 56 56 10
GlifName: eight
Width: 5360
VWidth: 9240
Flags: HMW
LayerCount: 2
Fore
SplineSet
2640 3600 m 0
 2640 3408 2648 3136 2816 3136 c 0
 3288 3136 3680 4768 3680 5520 c 0
 3680 5632 3672 5968 3464 5968 c 0
 3152 5968 2640 4352 2640 3600 c 0
960 4200 m 0
 960 5160 2112 6080 3480 6080 c 0
 4688 6080 5360 5400 5360 4760 c 0
 5360 3720 3968 3048 2840 3048 c 0
 1872 3048 960 3560 960 4200 c 0
1840 640 m 0
 1840 288 1888 32 2120 32 c 0
 2672 32 3120 1648 3120 2400 c 0
 3120 2752 3072 3024 2840 3024 c 0
 2288 3024 1840 1392 1840 640 c 0
240 1200 m 0
 240 2160 1072 3112 2680 3112 c 0
 4048 3112 4800 2640 4800 1840 c 0
 4800 880 3968 -80 2360 -80 c 0
 992 -80 240 400 240 1200 c 0
EndSplineSet
EndChar

StartChar: A
Encoding: 65 65 12
GlifName: A_
Width: 6560
Flags: HMW
LayerCount: 2
Fore
SplineSet
-400 112 m 1
 1360 112 l 1
 1360 0 l 1
 -400 0 l 1
 -400 112 l 1
2720 112 m 1
 6000 112 l 1
 6000 0 l 1
 2720 0 l 1
 2720 112 l 1
1456 2016 m 1
 4080 2016 l 1
 4080 1904 l 1
 1456 1904 l 1
 1456 2016 l 1
3152 4800 m 1
 384 0 l 1
 248 0 l 1
 3776 6120 l 1
 4680 6120 l 1
 5440 0 l 1
 3640 0 l 1
 3152 4800 l 1
EndSplineSet
EndChar

StartChar: B
Encoding: 66 66 13
GlifName: B_
Width: 5920
Flags: HMW
LayerCount: 2
Fore
SplineSet
2560 0 m 2
 -400 0 l 1
 -400 112 l 1
 2560 112 l 2
 3128 112 3680 888 3680 2080 c 0
 3680 2792 3456 3024 3008 3024 c 2
 2160 3024 l 1
 2160 3112 l 1
 3248 3112 l 2
 4376 3112 5520 2800 5520 1760 c 0
 5520 560 4008 0 2560 0 c 2
1720 6000 m 1
 3440 6000 l 1
 2040 0 l 1
 320 0 l 1
 1720 6000 l 1
3120 3048 m 2
 2160 3048 l 1
 2160 3136 l 1
 3120 3136 l 2
 3728 3136 4200 4048 4200 5080 c 0
 4200 5552 4048 5888 3680 5888 c 2
 1000 5888 l 1
 1000 6000 l 1
 3720 6000 l 2
 5168 6000 5960 5640 5960 4680 c 0
 5960 3560 4408 3048 3120 3048 c 2
EndSplineSet
EndChar

StartChar: C
Encoding: 67 67 14
GlifName: C_
Width: 5824
Flags: HMW
LayerCount: 2
Fore
SplineSet
2840 -80 m 0
 1376 -80 400 736 400 2040 c 0
 400 4224 2016 6080 4040 6080 c 0
 5144 6080 5696 5264 5920 4120 c 1
 5808 4120 l 1
 5504 5400 4872 5896 4360 5896 c 0
 2888 5896 2160 2856 2160 1400 c 0
 2160 664 2232 88 3064 88 c 0
 3896 88 4648 968 5368 1880 c 1
 5480 1880 l 1
 4840 896 3984 -80 2840 -80 c 0
5808 4120 m 1
 5720 4704 l 1
 5672 4864 5360 5320 5280 5416 c 1
 6264 6000 l 1
 6344 6000 l 1
 5920 4120 l 1
 5808 4120 l 1
5368 1880 m 1
 5480 1880 l 1
 5040 0 l 1
 4960 0 l 1
 4232 544 l 1
 4344 640 4896 1136 5016 1296 c 1
 5368 1880 l 1
EndSplineSet
EndChar

StartChar: D
Encoding: 68 68 15
GlifName: D_
Width: 6560
Flags: HMW
LayerCount: 2
Fore
SplineSet
1760 6000 m 1
 3480 6000 l 1
 2120 0 l 1
 400 0 l 1
 1760 6000 l 1
2920 0 m 2
 -320 0 l 1
 -320 112 l 1
 2600 112 l 2
 4072 112 4728 3224 4728 4520 c 0
 4728 5256 4632 5888 3880 5888 c 2
 960 5888 l 1
 960 6000 l 1
 4120 6000 l 2
 5424 6000 6560 5344 6560 3800 c 0
 6560 1856 5104 0 2920 0 c 2
EndSplineSet
EndChar

StartChar: E
Encoding: 69 69 16
GlifName: E_
Width: 5272
Flags: HMW
LayerCount: 2
Fore
SplineSet
952 6000 m 1
 5872 6000 l 1
 5488 4360 l 1
 5376 4360 l 1
 5336 5216 4848 5888 3912 5888 c 2
 952 5888 l 1
 952 6000 l 1
1672 6000 m 1
 3392 6000 l 1
 2000 0 l 1
 280 0 l 1
 1672 6000 l 1
2864 3048 m 2
 2376 3048 l 1
 2376 3160 l 1
 2864 3160 l 2
 3320 3160 3856 3648 4216 4184 c 1
 4328 4184 l 1
 3816 1984 l 1
 3704 1984 l 1
 3584 2520 3320 3048 2864 3048 c 2
4560 0 m 1
 -400 0 l 1
 -400 112 l 1
 2520 112 l 2
 3616 112 4392 784 4864 1800 c 1
 4976 1800 l 1
 4560 0 l 1
EndSplineSet
EndChar

StartChar: F
Encoding: 70 70 17
GlifName: F_
Width: 5032
Flags: HMW
LayerCount: 2
Fore
SplineSet
2712 2928 m 2
 2432 2928 l 1
 2432 3040 l 1
 2712 3040 l 2
 3240 3040 3768 3568 4112 4104 c 1
 4224 4104 l 1
 3704 1824 l 1
 3592 1824 l 1
 3472 2360 3248 2928 2712 2928 c 2
-400 112 m 1
 2800 112 l 1
 2800 0 l 1
 -400 0 l 1
 -400 112 l 1
1672 6000 m 1
 3392 6000 l 1
 2000 0 l 1
 280 0 l 1
 1672 6000 l 1
952 6000 m 1
 5712 6000 l 1
 5328 4360 l 1
 5216 4360 l 1
 5176 5216 4768 5888 3832 5888 c 2
 952 5888 l 1
 952 6000 l 1
EndSplineSet
EndChar

StartChar: G
Encoding: 71 71 18
GlifName: G_
Width: 6664
Flags: HMW
LayerCount: 2
Fore
SplineSet
4224 2248 m 1
 6016 2248 l 1
 5776 1320 l 1
 5416 816 4144 -80 2840 -80 c 0
 1456 -80 400 576 400 2040 c 0
 400 4384 2336 6080 4280 6080 c 0
 5384 6080 6056 5264 6232 4120 c 1
 6120 4120 l 1
 5920 5216 5304 5888 4600 5888 c 0
 3048 5888 2160 3176 2160 1560 c 0
 2160 744 2312 80 2904 80 c 0
 3336 80 3616 504 3896 1000 c 1
 4224 2248 l 1
3360 2336 m 1
 6320 2336 l 1
 6320 2224 l 1
 3360 2224 l 1
 3360 2336 l 1
6584 6000 m 1
 6664 6000 l 1
 6232 4120 l 1
 6128 4120 l 1
 6048 4632 l 1
 6024 4752 5648 5424 5536 5528 c 1
 6584 6000 l 1
EndSplineSet
EndChar

StartChar: H
Encoding: 72 72 19
GlifName: H_
Width: 6680
Flags: HMW
LayerCount: 2
Fore
SplineSet
3080 112 m 1
 6120 112 l 1
 6120 0 l 1
 3080 0 l 1
 3080 112 l 1
4400 6000 m 1
 7440 6000 l 1
 7440 5888 l 1
 4400 5888 l 1
 4400 6000 l 1
5040 6000 m 1
 6760 6000 l 1
 5400 0 l 1
 3680 0 l 1
 5040 6000 l 1
-360 112 m 1
 2680 112 l 1
 2680 0 l 1
 -360 0 l 1
 -360 112 l 1
960 6000 m 1
 4000 6000 l 1
 4000 5888 l 1
 960 5888 l 1
 960 6000 l 1
1680 6000 m 1
 3400 6000 l 1
 2040 0 l 1
 320 0 l 1
 1680 6000 l 1
1704 3016 m 1
 4584 3016 l 1
 4584 2904 l 1
 1704 2904 l 1
 1704 3016 l 1
EndSplineSet
EndChar

StartChar: I
Encoding: 73 73 20
GlifName: I_
Width: 3720
Flags: HMW
LayerCount: 2
Fore
SplineSet
-360 112 m 1
 3160 112 l 1
 3160 0 l 1
 -360 0 l 1
 -360 112 l 1
960 6000 m 1
 4480 6000 l 1
 4480 5888 l 1
 960 5888 l 1
 960 6000 l 1
1880 6000 m 1
 3600 6000 l 1
 2240 0 l 1
 520 0 l 1
 1880 6000 l 1
EndSplineSet
EndChar

StartChar: J
Encoding: 74 74 21
GlifName: J_
Width: 5008
Flags: HMW
LayerCount: 2
Fore
SplineSet
2168 6000 m 1
 5768 6000 l 1
 5768 5888 l 1
 2168 5888 l 1
 2168 6000 l 1
136 368 m 1
 248 128 640 -112 1128 -112 c 0
 1616 -112 1976 400 2232 1520 c 2
 3248 6000 l 1
 4968 6000 l 1
 3920 1352 l 1
 3200 392 2496 -240 1368 -240 c 0
 352 -240 -280 280 -280 1000 c 0
 -280 1496 96 2000 736 2000 c 0
 1256 2000 1664 1616 1664 1048 c 0
 1664 488 1192 104 680 104 c 0
 488 104 232 216 136 368 c 1
EndSplineSet
Substitution2: "'ss02' Style Set 2 lookup 4-1" J.alt
EndChar

StartChar: K
Encoding: 75 75 22
GlifName: K_
Width: 6776
Flags: HMW
LayerCount: 2
Fore
SplineSet
-360 112 m 1
 2680 112 l 1
 2680 0 l 1
 -360 0 l 1
 -360 112 l 1
960 6000 m 1
 4160 6000 l 1
 4160 5888 l 1
 960 5888 l 1
 960 6000 l 1
1680 6000 m 1
 3400 6000 l 1
 2040 0 l 1
 320 0 l 1
 1680 6000 l 1
1448 1736 m 1
 1232 1736 l 1
 6344 5984 l 1
 6528 5984 l 1
 1448 1736 l 1
3056 112 m 1
 6304 112 l 1
 6304 0 l 1
 3056 0 l 1
 3056 112 l 1
7256 5888 m 1
 5336 5888 l 1
 5336 6000 l 1
 7256 6000 l 1
 7256 5888 l 1
5680 0 m 1
 3768 0 l 1
 2744 2968 l 1
 4200 4136 l 1
 5680 0 l 1
EndSplineSet
EndChar

StartChar: L
Encoding: 76 76 23
GlifName: L_
Width: 5216
Flags: HMW
LayerCount: 2
Fore
SplineSet
1672 6000 m 1
 3392 6000 l 1
 2000 0 l 1
 280 0 l 1
 1672 6000 l 1
952 6000 m 1
 4112 6000 l 1
 4112 5888 l 1
 952 5888 l 1
 952 6000 l 1
4560 0 m 1
 -400 0 l 1
 -400 112 l 1
 2360 112 l 2
 3616 112 4392 784 4864 1800 c 1
 4976 1800 l 1
 4560 0 l 1
EndSplineSet
EndChar

StartChar: M
Encoding: 77 77 24
GlifName: M_
Width: 7600
Flags: HMW
LayerCount: 2
Fore
SplineSet
4120 112 m 1
 7040 112 l 1
 7040 0 l 1
 4120 0 l 1
 4120 112 l 1
7656 5888 m 1
 6400 0 l 1
 4680 0 l 1
 5960 6000 l 1
 8160 6000 l 1
 8160 5888 l 1
 7656 5888 l 1
3904 2384 m 1
 5896 6000 l 1
 6032 6000 l 1
 2672 -80 l 1
 2528 -80 l 1
 1584 6000 l 1
 3312 6000 l 1
 3904 2384 l 1
1544 5888 m 1
 960 5888 l 1
 960 6000 l 1
 1688 6000 l 1
 400 0 l 1
 280 0 l 1
 1544 5888 l 1
-240 112 m 1
 1056 112 l 1
 1056 0 l 1
 -240 0 l 1
 -240 112 l 1
EndSplineSet
EndChar

StartChar: N
Encoding: 78 78 25
GlifName: N_
Width: 6160
Flags: HMW
LayerCount: 2
Fore
SplineSet
5984 6000 m 1
 6104 6000 l 1
 4720 -80 l 1
 4496 -80 l 1
 1760 6000 l 1
 3800 6000 l 1
 5272 2872 l 1
 5984 6000 l 1
5024 6000 m 1
 6920 6000 l 1
 6920 5888 l 1
 5024 5888 l 1
 5024 6000 l 1
-320 112 m 1
 1528 112 l 1
 1528 0 l 1
 -320 0 l 1
 -320 112 l 1
1768 5888 m 1
 960 5888 l 1
 960 6000 l 1
 1904 6000 l 1
 560 0 l 1
 440 0 l 1
 1768 5888 l 1
EndSplineSet
EndChar

StartChar: O
Encoding: 79 79 26
GlifName: O_
Width: 6320
Flags: HMW
LayerCount: 2
Fore
SplineSet
2680 -80 m 0
 1216 -80 400 736 400 2040 c 0
 400 4544 2336 6080 4040 6080 c 0
 5424 6080 6320 5264 6320 3960 c 0
 6320 1456 4464 -80 2680 -80 c 0
4040 5984 m 0
 3048 5984 2080 2936 2080 1080 c 0
 2080 232 2248 16 2680 16 c 0
 3752 16 4640 3064 4640 4920 c 0
 4640 5608 4472 5984 4040 5984 c 0
EndSplineSet
EndChar

StartChar: P
Encoding: 80 80 27
GlifName: P_
Width: 5880
Flags: HMW
LayerCount: 2
Fore
SplineSet
1680 6000 m 1
 3400 6000 l 1
 2000 0 l 1
 280 0 l 1
 1680 6000 l 1
-360 112 m 1
 2800 112 l 1
 2800 0 l 1
 -360 0 l 1
 -360 112 l 1
3400 2664 m 2
 2520 2664 l 1
 2520 2776 l 1
 3000 2776 l 2
 3928 2776 4296 4168 4296 5040 c 0
 4296 5512 4168 5888 3800 5888 c 2
 960 5888 l 1
 960 6000 l 1
 4200 6000 l 2
 5248 6000 6120 5680 6120 4720 c 0
 6120 3520 5008 2664 3400 2664 c 2
EndSplineSet
EndChar

StartChar: Q
Encoding: 81 81 28
GlifName: Q_
Width: 6080
Flags: HMW
LayerCount: 2
Fore
SplineSet
4240 -1888 m 1
 4240 -2000 l 1
 2216 -2000 1360 -1304 1760 80 c 1
 2368 -64 2992 -56 3640 80 c 1
 3240 -1376 3592 -1888 4240 -1888 c 1
4040 5984 m 0
 3048 5984 2080 2936 2080 1080 c 0
 2080 264 2248 16 2680 16 c 0
 3752 16 4640 3064 4640 4920 c 0
 4640 5576 4472 5984 4040 5984 c 0
2680 -80 m 0
 1216 -80 400 736 400 2040 c 0
 400 4544 2336 6080 4040 6080 c 0
 5424 6080 6320 5264 6320 3960 c 0
 6320 1456 4464 -80 2680 -80 c 0
EndSplineSet
EndChar

StartChar: R
Encoding: 82 82 29
GlifName: R_
Width: 6560
Flags: HMW
LayerCount: 2
Fore
SplineSet
5880 96 m 1
 5592 -16 5208 -80 4760 -80 c 0
 2176 -80 4968 3024 3000 3024 c 2
 2640 3024 l 1
 2640 3080 l 1
 3560 3080 l 2
 6704 3080 4648 104 5472 104 c 0
 5608 104 5720 152 5848 200 c 1
 5880 96 l 1
1840 6000 m 1
 3560 6000 l 1
 2160 0 l 1
 440 0 l 1
 1840 6000 l 1
-280 112 m 1
 3040 112 l 1
 3040 0 l 1
 -280 0 l 1
 -280 112 l 1
3480 3064 m 2
 2640 3064 l 1
 2640 3136 l 1
 3080 3136 l 2
 4248 3136 4520 4488 4520 5120 c 0
 4520 5512 4360 5888 3720 5888 c 2
 1040 5888 l 1
 1040 6000 l 1
 4280 6000 l 2
 5328 6000 6240 5680 6240 4800 c 0
 6240 3680 5088 3064 3480 3064 c 2
EndSplineSet
Substitution2: "'ss01' Style Set 1 lookup 2-1" R.alt
EndChar

StartChar: S
Encoding: 83 83 30
GlifName: S_
Width: 5048
Flags: HMW
LayerCount: 2
Fore
SplineSet
4648 4688 m 1
 4592 4864 4272 5488 4136 5640 c 1
 5248 6080 l 1
 5328 6080 l 1
 4872 4120 l 1
 4760 4120 l 1
 4648 4688 l 1
4872 4120 m 1
 4760 4120 l 1
 4520 5056 4064 5944 3200 5944 c 0
 2672 5944 2184 5616 2184 5112 c 0
 2184 4000 4744 4160 4744 2240 c 0
 4744 1120 3672 -120 2224 -120 c 0
 976 -120 504 1080 264 2040 c 1
 376 2040 l 1
 608 1232 1056 16 2144 16 c 0
 2912 16 3344 464 3344 1048 c 0
 3344 2480 824 1960 824 3960 c 0
 824 5320 2072 6080 3120 6080 c 0
 4144 6080 4632 5168 4872 4120 c 1
-120 -80 m 1
 -200 -80 l 1
 264 2040 l 1
 376 2040 l 1
 536 1312 l 1
 592 1120 928 520 1040 392 c 1
 -120 -80 l 1
EndSplineSet
EndChar

StartChar: T
Encoding: 84 84 31
GlifName: T_
Width: 5776
Flags: HMW
LayerCount: 2
Fore
SplineSet
744 112 m 1
 4224 112 l 1
 4224 0 l 1
 744 0 l 1
 744 112 l 1
2936 6000 m 1
 4656 6000 l 1
 3264 0 l 1
 1544 0 l 1
 2936 6000 l 1
4856 5888 m 2
 2656 5888 l 2
 1880 5888 1144 4968 672 3960 c 1
 560 3960 l 1
 1016 6000 l 1
 6576 6000 l 1
 6120 3960 l 1
 6008 3960 l 1
 6000 4976 5632 5888 4856 5888 c 2
EndSplineSet
EndChar

StartChar: U
Encoding: 85 85 32
GlifName: U_
Width: 5896
Flags: HMW
LayerCount: 2
Fore
SplineSet
5096 6000 m 1
 6656 6000 l 1
 6656 5888 l 1
 5096 5888 l 1
 5096 6000 l 1
936 6000 m 1
 4176 6000 l 1
 4176 5888 l 1
 936 5888 l 1
 936 6000 l 1
5880 6000 m 1
 5992 6000 l 1
 5032 1840 l 2
 4744 584 3920 -120 2656 -120 c 0
 1352 -120 432 528 736 1840 c 2
 1696 6000 l 1
 3416 6000 l 1
 2456 1920 l 2
 2224 920 2216 112 3128 112 c 0
 3856 112 4648 664 4920 1840 c 2
 5880 6000 l 1
EndSplineSet
EndChar

StartChar: V
Encoding: 86 86 33
GlifName: V_
Width: 6520
Flags: HMW
LayerCount: 2
Fore
SplineSet
7320 5888 m 1
 5560 5888 l 1
 5560 6000 l 1
 7320 6000 l 1
 7320 5888 l 1
4200 5888 m 1
 920 5888 l 1
 920 6000 l 1
 4200 6000 l 1
 4200 5888 l 1
3768 1240 m 1
 6528 6000 l 1
 6664 6000 l 1
 3144 -80 l 1
 2240 -80 l 1
 1480 6000 l 1
 3280 6000 l 1
 3768 1240 l 1
EndSplineSet
EndChar

StartChar: W
Encoding: 87 87 34
GlifName: W_
Width: 9824
Flags: HMW
LayerCount: 2
Fore
SplineSet
4288 1616 m 1
 5624 3816 l 1
 5752 3816 l 1
 3408 -80 l 1
 2624 -80 l 1
 1496 6000 l 1
 3512 6000 l 1
 4288 1616 l 1
6304 3336 m 1
 6176 3336 l 1
 7816 6000 l 1
 7944 6000 l 1
 6304 3336 l 1
10624 5888 m 1
 9024 5888 l 1
 9024 6000 l 1
 10624 6000 l 1
 10624 5888 l 1
8720 5888 m 1
 920 5888 l 1
 920 6000 l 1
 8720 6000 l 1
 8720 5888 l 1
7112 1608 m 1
 9832 6000 l 1
 9960 6000 l 1
 6216 -80 l 1
 5672 -80 l 1
 4544 6000 l 1
 6304 6000 l 1
 7112 1608 l 1
EndSplineSet
EndChar

StartChar: X
Encoding: 88 88 35
GlifName: X_
Width: 6640
Flags: HMW
LayerCount: 2
Fore
SplineSet
3688 3016 m 1
 3504 3016 l 1
 6240 5984 l 1
 6392 5984 l 1
 3688 3016 l 1
448 0 m 1
 280 0 l 1
 3496 3336 l 1
 3656 3336 l 1
 448 0 l 1
3000 112 m 1
 6200 112 l 1
 6200 0 l 1
 3000 0 l 1
 3000 112 l 1
-440 112 m 1
 1480 112 l 1
 1480 0 l 1
 -440 0 l 1
 -440 112 l 1
4400 5888 m 1
 1200 5888 l 1
 1200 6000 l 1
 4400 6000 l 1
 4400 5888 l 1
7120 5888 m 1
 5360 5888 l 1
 5360 6000 l 1
 7120 6000 l 1
 7120 5888 l 1
5648 0 m 1
 3768 0 l 1
 1760 6000 l 1
 3608 6000 l 1
 5648 0 l 1
EndSplineSet
EndChar

StartChar: Y
Encoding: 89 89 36
GlifName: Y_
Width: 6240
Flags: HMW
LayerCount: 2
Fore
SplineSet
7040 5888 m 1
 5360 5888 l 1
 5360 6000 l 1
 7040 6000 l 1
 7040 5888 l 1
4224 5888 m 1
 920 5888 l 1
 920 6000 l 1
 4224 6000 l 1
 4224 5888 l 1
1120 112 m 1
 4360 112 l 1
 4360 0 l 1
 1120 0 l 1
 1120 112 l 1
4264 3288 m 1
 6272 5984 l 1
 6432 5984 l 1
 4232 3056 l 1
 3560 0 l 1
 1840 0 l 1
 2520 3016 l 1
 1480 6000 l 1
 3424 6000 l 1
 4264 3288 l 1
EndSplineSet
EndChar

StartChar: Z
Encoding: 90 90 37
GlifName: Z_
Width: 5312
Flags: HMW
LayerCount: 2
Fore
SplineSet
3712 5888 m 1
 2952 5888 l 2
 1856 5888 1328 5256 808 4400 c 1
 696 4400 l 1
 1072 6000 l 1
 5832 6000 l 1
 5832 5888 l 1
 1680 112 l 1
 2680 112 l 2
 3776 112 4224 752 4856 1760 c 1
 4968 1760 l 1
 4560 0 l 1
 -440 0 l 1
 -440 112 l 1
 3712 5888 l 1
EndSplineSet
EndChar

StartChar: a
Encoding: 97 97 38
GlifName: a
Width: 5488
VWidth: 9240
Flags: HMW
LayerCount: 2
Fore
SplineSet
3032 2512 m 0
 3032 2936 2928 3264 2728 3264 c 0
 2376 3264 1776 2000 1776 928 c 0
 1776 624 1888 416 2056 416 c 0
 2504 416 3032 1680 3032 2512 c 0
3120 2512 m 0
 3120 1648 2544 -80 1416 -80 c 0
 864 -80 144 240 144 1280 c 0
 144 2880 1400 3752 2272 3752 c 0
 2880 3752 3120 3248 3120 2512 c 0
5304 1304 m 1
 5000 504 4368 -80 3480 -80 c 0
 2864 -80 2696 176 2696 584 c 0
 2696 624 2704 736 2720 792 c 2
 2872 1448 l 1
 3048 2040 l 1
 3096 2536 l 1
 3424 3680 l 1
 4888 3680 l 1
 4008 552 l 2
 4000 504 3992 448 3992 408 c 0
 3992 320 4032 248 4136 248 c 0
 4528 248 5008 792 5200 1336 c 1
 5304 1304 l 1
EndSplineSet
EndChar

StartChar: b
Encoding: 98 98 39
GlifName: b
Width: 5312
VWidth: 9240
Flags: HMW
LayerCount: 2
Fore
SplineSet
1672 5888 m 1
 1072 5888 l 1
 1072 6000 l 1
 3216 6000 l 1
 2000 720 l 1
 2000 368 2088 64 2256 64 c 0
 2688 64 3416 1640 3416 2712 c 0
 3416 2984 3304 3256 3136 3256 c 0
 2888 3256 2472 2752 2256 1840 c 1
 2200 1840 l 1
 2504 3216 3144 3752 3792 3752 c 0
 4328 3752 5048 3504 5048 2480 c 0
 5048 800 3664 -80 2232 -80 c 0
 1744 -80 1104 136 544 960 c 1
 1672 5888 l 1
EndSplineSet
EndChar

StartChar: c
Encoding: 99 99 40
GlifName: c
Width: 4240
VWidth: 9240
Flags: HMW
LayerCount: 2
Fore
SplineSet
3752 3248 m 1
 3576 3480 3296 3624 3008 3624 c 0
 2216 3624 1776 2032 1776 1040 c 0
 1776 368 1944 216 2216 216 c 0
 2528 216 2952 448 3472 1144 c 1
 3576 1144 l 1
 3048 368 2464 -80 1576 -80 c 0
 848 -80 144 240 144 1200 c 0
 144 2720 1400 3760 2768 3760 c 0
 3504 3760 4136 3344 4136 2688 c 0
 4136 2200 3800 1832 3320 1832 c 0
 2880 1832 2464 2120 2464 2600 c 0
 2464 3120 2944 3408 3256 3408 c 0
 3512 3408 3688 3328 3752 3248 c 1
EndSplineSet
EndChar

StartChar: d
Encoding: 100 100 41
GlifName: d
Width: 5648
VWidth: 9240
Flags: HMW
LayerCount: 2
Fore
SplineSet
5464 1304 m 1
 5160 504 4528 -80 3640 -80 c 0
 3024 -80 2704 104 2704 664 c 0
 2704 704 2720 792 2728 840 c 2
 2872 1456 l 1
 3048 2064 l 1
 3096 2520 l 1
 3888 5888 l 1
 3160 5888 l 1
 3160 6000 l 1
 5424 6000 l 1
 4168 552 l 2
 4160 504 4152 448 4152 408 c 0
 4152 320 4184 240 4296 240 c 0
 4672 240 5168 784 5360 1336 c 1
 5464 1304 l 1
3032 2512 m 0
 3032 2936 2928 3264 2728 3264 c 0
 2376 3264 1776 2000 1776 928 c 0
 1776 624 1888 416 2056 416 c 0
 2504 416 3032 1680 3032 2512 c 0
3120 2512 m 0
 3120 1648 2544 -80 1416 -80 c 0
 864 -80 144 240 144 1280 c 0
 144 2880 1400 3760 2224 3760 c 0
 2832 3760 3120 3248 3120 2512 c 0
EndSplineSet
EndChar

StartChar: e
Encoding: 101 101 42
GlifName: e
Width: 4480
VWidth: 9240
Flags: HMW
LayerCount: 2
Fore
SplineSet
1776 728 m 0
 1776 376 1984 152 2296 152 c 0
 2728 152 3400 560 3792 1144 c 1
 3896 1144 l 1
 3504 528 2704 -80 1816 -80 c 0
 928 -80 144 240 144 1200 c 0
 144 2664 1504 3760 2792 3760 c 0
 3608 3760 4336 3472 4336 2896 c 0
 4336 1856 2592 1592 1704 1592 c 1
 1704 1672 l 1
 2016 1672 3008 2064 3008 3168 c 0
 3008 3384 2984 3664 2824 3664 c 0
 2432 3664 1776 1880 1776 728 c 0
EndSplineSet
EndChar

StartChar: f
Encoding: 102 102 43
GlifName: f
Width: 4000
VWidth: 9240
Flags: HMW
LayerCount: 2
Fore
SplineSet
712 3680 m 1
 3992 3680 l 1
 3992 3568 l 1
 712 3568 l 1
 712 3680 l 1
4808 5608 m 1
 4688 5776 4360 5952 4024 5952 c 0
 3464 5952 3120 5296 2952 4320 c 2
 2184 -96 l 2
 1912 -1648 840 -2080 -200 -2080 c 0
 -1088 -2080 -1616 -1544 -1616 -1048 c 0
 -1616 -560 -1328 -232 -848 -232 c 0
 -408 -232 8 -504 8 -984 c 0
 8 -1464 -352 -1776 -776 -1776 c 0
 -952 -1776 -1112 -1696 -1160 -1608 c 1
 -1056 -1776 -720 -1952 -384 -1952 c 0
 176 -1952 520 -1296 688 -320 c 2
 1456 4096 l 2
 1728 5648 2800 6080 3840 6080 c 0
 4728 6080 5256 5544 5256 5048 c 0
 5256 4560 4968 4232 4488 4232 c 0
 4048 4232 3632 4504 3632 4984 c 0
 3632 5464 3992 5776 4416 5776 c 0
 4592 5776 4760 5696 4808 5608 c 1
EndSplineSet
EndChar

StartChar: g
Encoding: 103 103 44
GlifName: g
Width: 5728
VWidth: 9240
Flags: HMW
LayerCount: 2
Fore
SplineSet
1280 -320 m 1
 1080 -408 848 -672 848 -1088 c 0
 848 -1680 1280 -1968 2048 -1968 c 0
 2680 -1968 3696 -1784 3696 -1016 c 0
 3696 -584 3400 -472 2960 -472 c 0
 2792 -472 1792 -472 1616 -472 c 0
 896 -472 312 -104 312 392 c 0
 312 1168 1408 1376 2248 1376 c 1
 2232 1320 l 1
 1968 1320 1264 1232 1264 984 c 0
 1264 848 1544 792 1984 792 c 0
 2264 792 2888 800 3112 800 c 0
 3952 800 4344 352 4344 -336 c 0
 4344 -1624 3008 -2080 1968 -2080 c 0
 984 -2080 -336 -1864 -336 -1136 c 0
 -336 -408 840 -320 1200 -320 c 2
 1280 -320 l 1
5864 2976 m 0
 5864 2456 5536 2272 5256 2272 c 0
 4976 2272 4656 2448 4656 2872 c 0
 4656 3176 4888 3448 5232 3448 c 0
 5424 3448 5648 3328 5680 3232 c 1
 5616 3488 5368 3608 5112 3608 c 0
 4712 3608 4336 3416 3928 2712 c 1
 3832 2776 l 1
 4232 3504 4712 3720 5112 3720 c 0
 5648 3720 5864 3336 5864 2976 c 0
2320 1392 m 0
 2552 1392 2952 2488 2952 3240 c 0
 2952 3432 2952 3648 2800 3648 c 0
 2568 3648 2168 2552 2168 1800 c 0
 2168 1608 2168 1392 2320 1392 c 0
2280 1280 m 0
 1392 1280 696 1560 696 2280 c 0
 696 3160 1712 3760 2840 3760 c 0
 3728 3760 4424 3480 4424 2760 c 0
 4424 1880 3408 1280 2280 1280 c 0
EndSplineSet
EndChar

StartChar: h
Encoding: 104 104 45
GlifName: h
Width: 5408
VWidth: 9240
Flags: HMW
LayerCount: 2
Fore
SplineSet
3040 2440 m 2
 3248 3048 3336 3512 3128 3512 c 0
 2784 3512 2296 2608 1992 1384 c 1
 1912 1384 l 1
 2288 2616 2544 3760 3528 3760 c 0
 4384 3760 4888 3232 4600 2376 c 2
 3944 440 l 2
 3928 392 3920 336 3920 296 c 0
 3920 208 3968 152 4072 152 c 0
 4480 152 4904 728 5120 1336 c 1
 5224 1304 l 1
 4920 504 4448 -80 3560 -80 c 0
 2864 -80 2496 168 2496 672 c 0
 2496 792 2512 888 2536 976 c 2
 3040 2440 l 2
1560 5888 m 1
 1024 5888 l 1
 1024 6000 l 1
 3104 6000 l 1
 1664 0 l 1
 144 0 l 1
 1560 5888 l 1
EndSplineSet
EndChar

StartChar: i
Encoding: 105 105 46
GlifName: i
Width: 3360
VWidth: 9240
Flags: HMW
LayerCount: 2
Fore
SplineSet
1144 5200 m 0
 1144 5704 1520 6080 2024 6080 c 0
 2528 6080 2904 5704 2904 5200 c 0
 2904 4696 2528 4320 2024 4320 c 0
 1520 4320 1144 4696 1144 5200 c 0
3176 1304 m 1
 2872 504 2240 -80 1352 -80 c 0
 736 -80 424 104 424 664 c 0
 424 704 424 792 440 840 c 2
 1136 3568 l 1
 504 3568 l 1
 504 3680 l 1
 2680 3680 l 1
 1888 552 l 2
 1880 504 1872 448 1872 408 c 0
 1872 320 1912 240 2016 240 c 0
 2368 240 2856 736 3072 1336 c 1
 3176 1304 l 1
EndSplineSet
EndChar

StartChar: j
Encoding: 106 106 47
GlifName: j
Width: 2744
VWidth: 9240
Flags: HMW
LayerCount: 2
Fore
SplineSet
1160 5200 m 0
 1160 5704 1536 6080 2040 6080 c 0
 2544 6080 2920 5704 2920 5200 c 0
 2920 4696 2544 4320 2040 4320 c 0
 1536 4320 1160 4696 1160 5200 c 0
-1328 -1632 m 1
 -1208 -1792 -880 -1944 -512 -1944 c 0
 288 -1944 160 -800 384 160 c 2
 1184 3568 l 1
 448 3568 l 1
 448 3680 l 1
 2728 3680 l 1
 1944 -96 l 2
 1736 -1096 568 -2080 -472 -2080 c 0
 -1200 -2080 -1856 -1624 -1856 -1088 c 0
 -1856 -600 -1440 -232 -960 -232 c 0
 -520 -232 -152 -560 -152 -936 c 0
 -152 -1392 -536 -1760 -1000 -1760 c 0
 -1136 -1760 -1248 -1704 -1328 -1632 c 1
EndSplineSet
EndChar

StartChar: k
Encoding: 107 107 48
GlifName: k
Width: 5464
VWidth: 9240
Flags: HMW
LayerCount: 2
Fore
SplineSet
5240 1304 m 1
 4936 504 4384 -80 3576 -80 c 0
 2960 -80 2512 104 2512 664 c 0
 2512 704 2520 792 2528 840 c 2
 2584 1120 l 2
 2680 1584 2920 2120 2696 2120 c 0
 2496 2120 2328 1824 2256 1520 c 1
 2176 1520 l 1
 2368 2176 2584 2352 3152 2352 c 0
 3704 2352 4280 2008 4040 968 c 2
 3936 392 l 2
 3936 376 3928 336 3928 320 c 0
 3928 232 3984 192 4088 192 c 0
 4464 192 4936 768 5136 1336 c 1
 5240 1304 l 1
2240 2576 m 1
 2368 2504 l 1
 2384 2208 2384 2040 2600 2040 c 0
 2888 2040 2960 2384 3168 2896 c 0
 3392 3440 3784 3760 4264 3760 c 0
 4784 3760 5320 3368 5320 2792 c 0
 5320 2352 4992 1992 4552 1992 c 0
 4112 1992 3832 2368 3832 2712 c 0
 3832 3096 4168 3408 4552 3408 c 0
 4776 3408 4992 3296 5048 3184 c 1
 4960 3440 4624 3648 4256 3648 c 0
 3880 3648 3496 3400 3280 2856 c 0
 3064 2312 2992 1936 2600 1936 c 0
 2328 1936 2240 2160 2240 2576 c 1
1752 5888 m 1
 1056 5888 l 1
 1056 6000 l 1
 3296 6000 l 1
 1904 0 l 1
 384 0 l 1
 1752 5888 l 1
EndSplineSet
EndChar

StartChar: l
Encoding: 108 108 49
GlifName: l
Width: 3280
VWidth: 9240
Flags: HMW
LayerCount: 2
Fore
SplineSet
3096 1304 m 1
 2792 504 2160 -80 1272 -80 c 0
 656 -80 344 104 344 664 c 0
 344 704 352 792 360 840 c 2
 1520 5888 l 1
 792 5888 l 1
 792 6000 l 1
 3056 6000 l 1
 1808 552 l 2
 1800 504 1792 448 1792 408 c 0
 1792 320 1832 240 1936 240 c 0
 2280 240 2776 728 2992 1336 c 1
 3096 1304 l 1
EndSplineSet
EndChar

StartChar: m
Encoding: 109 109 50
GlifName: m
Width: 7736
VWidth: 9240
Flags: HMW
LayerCount: 2
Fore
SplineSet
5368 2440 m 2
 5576 3048 5632 3488 5424 3488 c 0
 5128 3488 4632 2688 4320 1384 c 1
 4240 1384 l 1
 4544 2552 4912 3760 5856 3760 c 0
 6712 3760 7216 3232 6928 2376 c 2
 6272 440 l 2
 6256 392 6248 336 6248 296 c 0
 6248 208 6296 144 6400 144 c 0
 6800 144 7224 712 7448 1336 c 1
 7552 1304 l 1
 7248 504 6776 -80 5888 -80 c 0
 5192 -80 4824 168 4824 672 c 0
 4824 792 4840 888 4864 976 c 2
 5368 2440 l 2
3984 0 m 17
 2464 0 l 1
 3064 2464 l 2
 3216 3096 3344 3488 3136 3488 c 0
 2808 3488 2320 2600 2032 1384 c 1
 1952 1384 l 1
 2304 2600 2592 3760 3576 3760 c 0
 4432 3760 4800 3336 4608 2552 c 2
 3984 0 l 17
1040 3568 m 1
 504 3568 l 1
 504 3680 l 1
 2584 3680 l 1
 1704 0 l 1
 184 0 l 1
 1040 3568 l 1
EndSplineSet
EndChar

StartChar: n
Encoding: 110 110 51
GlifName: n
Width: 5448
VWidth: 9240
Flags: HMW
LayerCount: 2
Fore
SplineSet
1024 3568 m 1
 496 3568 l 1
 496 3680 l 1
 2576 3680 l 1
 1688 0 l 1
 168 0 l 1
 1024 3568 l 1
3064 2440 m 2
 3272 3048 3360 3512 3152 3512 c 0
 2808 3512 2320 2608 2016 1384 c 1
 1936 1384 l 1
 2312 2616 2568 3760 3552 3760 c 0
 4408 3760 4912 3232 4624 2376 c 2
 3968 440 l 2
 3952 392 3944 336 3944 296 c 0
 3944 208 3992 152 4096 152 c 0
 4504 152 4928 728 5144 1336 c 1
 5248 1304 l 1
 4944 504 4472 -80 3584 -80 c 0
 2888 -80 2520 168 2520 672 c 0
 2520 792 2536 888 2560 976 c 2
 3064 2440 l 2
EndSplineSet
EndChar

StartChar: o
Encoding: 111 111 52
GlifName: o
Width: 4704
VWidth: 9240
Flags: HMW
LayerCount: 2
Fore
SplineSet
1896 -80 m 0
 1088 -80 144 400 144 1360 c 0
 144 2880 1400 3760 2688 3760 c 0
 3496 3760 4440 3280 4440 2320 c 0
 4440 800 3184 -80 1896 -80 c 0
1896 32 m 0
 2448 32 2968 2128 2968 3120 c 0
 2968 3504 2880 3648 2688 3648 c 0
 2136 3648 1616 1552 1616 560 c 0
 1616 176 1704 32 1896 32 c 0
EndSplineSet
EndChar

StartChar: p
Encoding: 112 112 53
GlifName: p
Width: 5248
VWidth: 9240
Flags: HMW
LayerCount: 2
Fore
SplineSet
2136 1160 m 0
 2136 736 2240 408 2440 408 c 0
 2792 408 3392 1672 3392 2744 c 0
 3392 3048 3280 3256 3112 3256 c 0
 2664 3256 2136 1992 2136 1160 c 0
2048 1160 m 0
 2048 2024 2624 3752 3752 3752 c 0
 4304 3752 5024 3432 5024 2392 c 0
 5024 792 3776 -80 2952 -80 c 0
 2344 -80 2048 424 2048 1160 c 0
-736 -1888 m 1
 1864 -1888 l 1
 1864 -2000 l 1
 -736 -2000 l 1
 -736 -1888 l 1
1072 3568 m 1
 520 3568 l 1
 520 3680 l 1
 2616 3680 l 1
 2288 2280 l 1
 2128 1744 l 1
 2080 1328 l 1
 1304 -2000 l 1
 -216 -2000 l 1
 1072 3568 l 1
EndSplineSet
EndChar

StartChar: q
Encoding: 113 113 54
GlifName: q
Width: 5048
VWidth: 9240
Flags: HMW
LayerCount: 2
Fore
SplineSet
3976 -1888 m 1
 3976 -2000 l 1
 1536 -2000 l 1
 1536 -1888 l 1
 3976 -1888 l 1
3416 -2000 m 17
 2056 -2000 l 1
 2848 1368 l 1
 2872 1440 3024 1952 3048 2048 c 1
 3096 2520 l 1
 3352 3600 l 1
 4744 3760 l 1
 3416 -2000 l 17
3032 2512 m 0
 3032 2936 2928 3264 2728 3264 c 0
 2376 3264 1776 2000 1776 928 c 0
 1776 624 1888 416 2056 416 c 0
 2504 416 3032 1680 3032 2512 c 0
3120 2512 m 0
 3120 1648 2544 -80 1416 -80 c 0
 864 -80 144 240 144 1280 c 0
 144 2880 1400 3760 2224 3760 c 0
 2832 3760 3120 3248 3120 2512 c 0
EndSplineSet
EndChar

StartChar: r
Encoding: 114 114 55
GlifName: r
Width: 4504
VWidth: 9240
Flags: HMW
LayerCount: 2
Fore
SplineSet
4680 2712 m 0
 4680 2240 4360 1824 3816 1824 c 0
 3312 1824 2944 2168 2944 2664 c 0
 2944 3104 3296 3512 3848 3512 c 0
 4016 3512 4120 3424 4176 3344 c 1
 4064 3544 3784 3632 3576 3632 c 0
 2728 3632 2248 2168 2056 1384 c 1
 1976 1384 l 1
 2168 2272 2568 3760 3624 3760 c 0
 4152 3760 4680 3344 4680 2712 c 0
1080 3568 m 1
 504 3568 l 1
 504 3680 l 1
 2584 3680 l 1
 1744 0 l 1
 224 0 l 1
 1080 3568 l 1
EndSplineSet
EndChar

StartChar: s
Encoding: 115 115 56
GlifName: s
Width: 4144
VWidth: 9240
Flags: HMW
LayerCount: 2
Fore
SplineSet
3368 3304 m 1
 3256 3456 2920 3640 2296 3640 c 0
 1744 3640 1600 3408 1600 3200 c 0
 1600 2528 3480 2360 3480 1296 c 0
 3480 544 2680 -96 1664 -96 c 0
 392 -96 -16 480 -16 920 c 0
 -16 1328 304 1576 624 1576 c 0
 904 1576 1256 1368 1256 968 c 0
 1256 608 952 368 640 368 c 0
 440 368 304 464 272 528 c 1
 432 288 760 16 1664 16 c 0
 2224 16 2576 232 2576 512 c 0
 2576 1080 592 1288 592 2456 c 0
 592 3248 1472 3752 2248 3752 c 0
 3296 3752 3760 3336 3760 2880 c 0
 3760 2552 3520 2304 3200 2304 c 0
 2920 2304 2584 2512 2584 2872 c 0
 2584 3192 2800 3432 3096 3432 c 0
 3232 3432 3304 3392 3368 3304 c 1
EndSplineSet
EndChar

StartChar: t
Encoding: 116 116 57
GlifName: t
Width: 3368
VWidth: 9240
Flags: HMW
LayerCount: 2
Fore
SplineSet
464 3680 m 1
 3424 3680 l 1
 3424 3568 l 1
 464 3568 l 1
 464 3680 l 1
3168 1304 m 1
 2864 504 2232 -80 1344 -80 c 0
 728 -80 392 104 392 664 c 0
 392 704 400 792 416 840 c 2
 1336 4480 l 1
 2848 4480 l 1
 1864 552 l 2
 1856 504 1848 448 1848 408 c 0
 1848 320 1888 256 1992 256 c 0
 2400 256 2872 808 3064 1336 c 1
 3168 1304 l 1
EndSplineSet
EndChar

StartChar: u
Encoding: 117 117 58
GlifName: u
Width: 5680
VWidth: 9240
Flags: HMW
LayerCount: 2
Fore
SplineSet
2600 3680 m 1
 2024 1216 l 2
 1880 584 1776 208 2000 208 c 0
 2296 208 2784 1072 3088 2296 c 1
 3176 2296 l 1
 2792 1032 2504 -80 1536 -80 c 0
 760 -80 352 472 496 1128 c 2
 1048 3568 l 1
 504 3568 l 1
 504 3680 l 1
 2600 3680 l 1
5496 1304 m 1
 5192 504 4560 -80 3672 -80 c 0
 3056 -80 2728 104 2728 664 c 0
 2728 704 2736 792 2744 840 c 2
 3392 3680 l 1
 4920 3680 l 1
 4192 552 l 2
 4184 504 4176 448 4176 408 c 0
 4176 320 4216 256 4320 256 c 0
 4712 256 5192 776 5392 1336 c 1
 5496 1304 l 1
EndSplineSet
EndChar

StartChar: v
Encoding: 118 118 59
GlifName: v
Width: 5456
VWidth: 9240
Flags: HMW
LayerCount: 2
Fore
SplineSet
2584 1136 m 2
 2480 504 2384 136 2832 136 c 0
 3656 136 5208 1352 5208 2752 c 0
 5208 2768 5208 2776 5208 2800 c 1
 5184 2456 4720 2040 4264 2040 c 0
 3752 2040 3400 2456 3400 2896 c 0
 3400 3376 3792 3752 4328 3752 c 0
 4912 3752 5312 3320 5312 2752 c 0
 5312 1296 3744 -80 2440 -80 c 0
 1424 -80 928 480 1080 1288 c 2
 1424 3128 l 2
 1432 3176 1440 3232 1440 3272 c 0
 1440 3360 1384 3424 1272 3424 c 0
 792 3424 448 2872 216 2344 c 1
 104 2376 l 1
 488 3176 880 3760 1928 3760 c 0
 2624 3760 2856 3520 2856 3096 c 0
 2856 2976 2856 2920 2832 2784 c 2
 2584 1136 l 2
EndSplineSet
Substitution2: "'ss04' Style Set 4 lookup 5-1" v.alt
EndChar

StartChar: w
Encoding: 119 119 60
GlifName: w
Width: 8040
VWidth: 9240
Flags: HMW
LayerCount: 2
Fore
SplineSet
2288 1288 m 2
 2080 672 2104 176 2472 176 c 0
 3008 176 3448 1088 3736 2296 c 1
 3824 2296 l 1
 3520 1136 3256 -80 1960 -80 c 0
 1024 -80 480 344 744 1128 c 2
 1424 3128 l 2
 1440 3176 1448 3232 1448 3272 c 0
 1448 3360 1392 3424 1280 3424 c 0
 816 3424 480 2928 216 2344 c 1
 104 2376 l 1
 488 3176 880 3760 1928 3760 c 0
 2544 3760 2872 3560 2872 3056 c 0
 2872 2936 2848 2840 2832 2784 c 2
 2288 1288 l 2
4064 3680 m 1
 5584 3680 l 1
 5072 1512 l 2
 4912 840 4944 144 5536 144 c 0
 6712 144 7784 1880 7784 2752 c 0
 7784 2760 7784 2776 7784 2800 c 1
 7744 2408 7376 2040 6840 2040 c 0
 6280 2040 5976 2456 5976 2896 c 0
 5976 3376 6408 3752 6904 3752 c 0
 7328 3752 7896 3480 7896 2752 c 0
 7896 1872 6856 -80 5216 -80 c 0
 4424 -80 3408 192 3520 1424 c 1
 4064 3680 l 1
EndSplineSet
EndChar

StartChar: x
Encoding: 120 120 61
GlifName: x
Width: 5696
VWidth: 9240
Flags: HMW
LayerCount: 2
Fore
SplineSet
3080 1960 m 1
 3560 2744 3992 3760 4864 3760 c 0
 5512 3760 5832 3248 5832 2832 c 0
 5832 2384 5512 2032 5048 2032 c 0
 4568 2032 4288 2448 4288 2808 c 0
 4288 3184 4608 3568 5048 3568 c 0
 5184 3568 5304 3480 5376 3376 c 1
 5264 3560 5056 3656 4848 3656 c 0
 4120 3656 3672 2704 3184 1904 c 1
 3080 1960 l 1
2736 1728 m 1
 2256 944 1824 -80 952 -80 c 0
 304 -80 -16 432 -16 848 c 0
 -16 1296 304 1648 768 1648 c 0
 1248 1648 1528 1232 1528 872 c 0
 1528 496 1216 112 776 112 c 0
 616 112 496 224 440 336 c 1
 536 160 728 24 968 24 c 0
 1704 24 2168 1024 2632 1784 c 1
 2736 1728 l 1
5264 872 m 1
 5008 232 4560 -80 3824 -80 c 0
 3048 -80 2800 200 2576 744 c 0
 2304 1408 1936 2712 1728 3288 c 0
 1696 3376 1648 3480 1496 3480 c 0
 1248 3480 984 3160 824 2744 c 1
 720 2792 l 1
 968 3432 1368 3776 2184 3776 c 0
 2960 3776 3176 3496 3400 2952 c 0
 3680 2256 4000 1176 4280 400 c 0
 4312 312 4392 208 4512 208 c 0
 4728 208 5032 552 5168 920 c 1
 5264 872 l 1
EndSplineSet
EndChar

StartChar: y
Encoding: 121 121 62
GlifName: y
Width: 5656
VWidth: 9240
Flags: HMW
LayerCount: 2
Fore
SplineSet
2888 -1072 m 1
 2136 192 1536 2632 1320 3208 c 0
 1288 3296 1208 3416 1064 3416 c 0
 856 3416 552 3184 392 2728 c 1
 288 2776 l 1
 552 3496 1176 3760 1832 3760 c 0
 2472 3760 2808 3472 2976 2928 c 0
 3200 2208 3472 936 4008 152 c 1
 3888 -16 3024 -936 2888 -1072 c 1
1360 -2080 m 0
 456 -2080 104 -1408 104 -968 c 0
 104 -464 456 -40 920 -40 c 0
 1360 -40 1688 -328 1688 -792 c 0
 1688 -1216 1392 -1544 952 -1544 c 0
 584 -1544 336 -1320 240 -1048 c 1
 248 -1336 520 -1968 1344 -1968 c 0
 2728 -1968 5384 1864 5384 2840 c 0
 5384 2856 5384 2864 5384 2888 c 1
 5328 2520 5040 2208 4592 2208 c 0
 4080 2208 3784 2624 3784 2984 c 0
 3784 3384 4072 3760 4608 3760 c 0
 5176 3760 5512 3336 5512 2848 c 0
 5512 1808 2816 -2080 1360 -2080 c 0
EndSplineSet
EndChar

StartChar: z
Encoding: 122 122 63
GlifName: z
Width: 4216
VWidth: 9240
Flags: HMW
LayerCount: 2
Fore
SplineSet
248 1520 m 1
 776 3760 l 1
 1208 3520 1688 3448 2296 3448 c 0
 2840 3448 3544 3544 3880 3760 c 1
 3984 3656 l 1
 3128 3096 2112 2040 1440 2040 c 0
 1088 2040 760 2144 552 2304 c 1
 360 1520 l 1
 248 1520 l 1
144 120 m 1
 -120 24 l 1
 3760 3600 l 1
 3984 3656 l 1
 144 120 l 1
4056 1504 m 1
 3936 1224 3736 1008 3376 1008 c 0
 3032 1008 2680 1328 2680 1728 c 0
 2680 2168 3056 2456 3416 2456 c 0
 3816 2456 4176 2128 4176 1640 c 0
 4176 1080 3576 -80 2440 -80 c 0
 1792 -80 1448 312 920 312 c 0
 536 312 232 176 -24 -80 c 1
 -120 24 l 1
 616 504 1480 1400 2040 1400 c 0
 2664 1400 2592 816 3320 816 c 0
 3768 816 4016 1072 4056 1504 c 1
EndSplineSet
EndChar

StartChar: comma
Encoding: 44 44 65
GlifName: comma
Width: 2680
Flags: HMW
LayerCount: 2
Fore
SplineSet
320 872 m 0
 320 1376 792 1824 1336 1824 c 0
 1888 1824 2376 1416 2376 672 c 0
 2376 -592 944 -1248 -256 -1248 c 1
 -256 -1136 l 1
 776 -1136 2216 -584 2256 656 c 1
 2112 240 1672 -80 1240 -80 c 0
 704 -80 320 368 320 872 c 0
EndSplineSet
EndChar

StartChar: exclam
Encoding: 33 33 67
GlifName: exclam
Width: 3512
Flags: HMW
LayerCount: 2
Fore
SplineSet
3584 5272 m 0
 3584 4248 2408 3744 2048 2464 c 1
 1936 2464 l 1
 2176 3664 1600 3784 1600 4792 c 0
 1600 5480 2176 6064 2728 6064 c 0
 3248 6064 3584 5680 3584 5272 c 0
672 880 m 0
 672 1408 1104 1840 1632 1840 c 0
 2160 1840 2592 1408 2592 880 c 0
 2592 352 2160 -80 1632 -80 c 0
 1104 -80 672 352 672 880 c 0
EndSplineSet
EndChar

StartChar: quotesingle
Encoding: 39 39 70
GlifName: quotesingle
Width: 2512
Flags: HMW
LayerCount: 2
Fore
SplineSet
2848 5112 m 0
 2696 4512 1888 4144 1648 3344 c 1
 1536 3344 l 1
 1744 4144 1176 4488 1088 5088 c 24
 1080 5144 1080 5224 1080 5272 c 0
 1080 5744 1488 6080 2040 6080 c 0
 2512 6080 2872 5744 2872 5352 c 0
 2872 5264 2864 5168 2848 5112 c 0
EndSplineSet
EndChar

StartChar: question
Encoding: 63 63 75
GlifName: question
Width: 4960
Flags: HMW
LayerCount: 2
Fore
SplineSet
2456 2856 m 1
 2312 2232 l 1
 2200 2232 l 1
 2360 2936 l 1
 3296 3184 3632 4376 3632 5200 c 0
 3632 5632 3480 5960 3088 5960 c 0
 2256 5960 1632 5400 1472 5032 c 1
 1592 5152 1816 5280 2056 5280 c 0
 2448 5280 2832 4960 2832 4520 c 0
 2832 4040 2416 3672 1976 3672 c 0
 1416 3672 1200 4080 1200 4568 c 0
 1200 5224 2112 6080 3168 6080 c 0
 4056 6080 5320 5760 5320 4800 c 0
 5320 3368 3696 2920 2456 2856 c 1
EndSplineSet
Refer: 1 46 N 1 0 0 1 1192 0 2
EndChar

StartChar: parenleft
Encoding: 40 40 76
GlifName: parenleft
Width: 3080
Flags: HMW
LayerCount: 2
Fore
SplineSet
2336 -1272 m 1
 2288 -1360 l 1
 1384 -960 680 96 680 1480 c 0
 680 3824 2504 5760 4048 6400 c 1
 4096 6312 l 1
 2864 5352 2112 1784 2112 8 c 0
 2112 -568 2208 -1032 2336 -1272 c 1
EndSplineSet
EndChar

StartChar: asterisk
Encoding: 42 42 78
GlifName: asterisk
Width: 5080
VWidth: 9240
Flags: HMW
LayerCount: 2
Fore
SplineSet
2264 5216 m 0
 2792 4832 2416 4000 3096 3640 c 1
 3032 3552 l 1
 2272 3992 1656 3488 1104 3736 c 0
 632 3952 616 4528 864 4936 c 0
 1136 5368 1800 5552 2264 5216 c 0
1048 3464 m 0
 1640 3584 2272 3208 3032 3648 c 1
 3088 3552 l 1
 2328 3112 2184 2456 1680 2040 c 0
 1216 1656 680 1776 432 2168 c 0
 152 2600 424 3336 1048 3464 c 0
1848 1816 m 0
 1992 2432 2896 2720 3016 3600 c 1
 3112 3600 l 1
 2952 2560 3592 2336 3592 1736 c 0
 3592 1280 3104 864 2584 864 c 0
 2144 864 1696 1144 1848 1816 c 0
3856 1984 m 0
 3328 2368 3712 3200 3032 3560 c 1
 3088 3640 l 1
 3848 3200 4464 3712 5016 3464 c 0
 5488 3248 5504 2672 5256 2264 c 0
 4984 1832 4320 1648 3856 1984 c 0
5072 3736 m 0
 4480 3616 3848 3992 3088 3552 c 1
 3032 3640 l 1
 3792 4080 3936 4744 4440 5160 c 0
 4904 5544 5440 5424 5688 5032 c 0
 5968 4600 5696 3864 5072 3736 c 0
4272 5384 m 0
 4160 4768 3232 4480 3112 3600 c 1
 3008 3600 l 1
 3168 4640 2528 4864 2528 5464 c 0
 2528 5920 3016 6336 3536 6336 c 0
 3976 6336 4400 6064 4272 5384 c 0
EndSplineSet
EndChar

StartChar: at
Encoding: 64 64 79
GlifName: at
Width: 8080
VWidth: 9240
Flags: HMW
LayerCount: 2
Fore
SplineSet
4408 2888 m 0
 4408 1592 3920 560 2880 560 c 0
 2120 560 1632 1008 1632 1840 c 0
 1632 3040 2464 4232 3568 4232 c 0
 4328 4232 4408 3544 4408 2888 c 0
4312 2768 m 0
 4312 3104 4312 3704 4136 3704 c 0
 3872 3704 3400 2912 3400 1920 c 0
 3400 1384 3520 1096 3712 1096 c 0
 3960 1096 4312 1800 4312 2768 c 0
4160 1680 m 2
 4736 4160 l 1
 6416 4160 l 1
 5832 1640 l 2
 5744 1248 5616 816 5944 816 c 0
 6688 816 7528 1880 7528 3208 c 0
 7528 4632 6648 6208 4672 6208 c 0
 2408 6208 552 4136 552 1688 c 0
 552 -736 1944 -1600 3352 -1600 c 0
 4656 -1600 5496 -1216 6200 -432 c 1
 6280 -512 l 1
 5608 -1296 4656 -1712 3352 -1712 c 0
 1888 -1712 440 -824 440 1688 c 0
 440 4192 2336 6320 4680 6320 c 0
 6704 6320 7640 4672 7640 3208 c 0
 7640 1848 6896 544 5288 544 c 0
 4096 544 4048 1184 4160 1680 c 2
EndSplineSet
EndChar

StartChar: dollar
Encoding: 36 36 80
GlifName: dollar
Width: 5160
Flags: HMW
LayerCount: 2
Fore
SplineSet
3192 6640 m 1
 3328 6640 l 1
 1648 -640 l 1
 1512 -640 l 1
 3192 6640 l 1
3752 6640 m 1
 3888 6640 l 1
 2208 -640 l 1
 2072 -640 l 1
 3752 6640 l 1
2400 5080 m 0
 2400 3840 4920 4320 4920 2240 c 0
 4920 720 3328 -120 2200 -120 c 0
 1112 -120 240 560 240 1440 c 0
 240 1888 528 2296 1040 2296 c 0
 1440 2296 1792 2000 1792 1568 c 0
 1792 1008 1408 768 976 768 c 0
 760 768 576 856 472 952 c 1
 664 520 1272 -8 2200 -8 c 0
 3048 -8 3560 528 3560 1080 c 0
 3560 2480 1040 1800 1040 3880 c 0
 1040 5240 2528 6080 3576 6080 c 0
 4440 6080 5240 5528 5240 4800 c 0
 5240 4432 4976 4016 4464 4016 c 0
 4064 4016 3688 4272 3688 4760 c 0
 3688 5240 4128 5472 4480 5472 c 0
 4720 5472 4904 5352 4968 5280 c 1
 4800 5592 4304 5952 3576 5952 c 0
 2728 5952 2400 5472 2400 5080 c 0
EndSplineSet
EndChar

StartChar: numbersign
Encoding: 35 35 81
GlifName: numbersign
Width: 5040
Flags: HMW
LayerCount: 2
Fore
SplineSet
528 2080 m 1
 4848 2080 l 1
 4848 1968 l 1
 528 1968 l 1
 528 2080 l 1
928 4152 m 1
 5248 4152 l 1
 5248 4040 l 1
 928 4040 l 1
 928 4152 l 1
4352 6032 m 1
 4464 6040 l 1
 3064 -40 l 1
 2952 -48 l 1
 4352 6032 l 1
2752 6040 m 1
 2864 6040 l 1
 1464 -40 l 1
 1352 -40 l 1
 2752 6040 l 1
EndSplineSet
EndChar

StartChar: slash
Encoding: 47 47 82
GlifName: slash
Width: 4160
Flags: HMW
LayerCount: 2
Fore
SplineSet
4824 6240 m 1
 4960 6240 l 1
 -104 -1200 l 1
 -240 -1200 l 1
 4824 6240 l 1
EndSplineSet
EndChar

StartChar: percent
Encoding: 37 37 83
GlifName: percent
Width: 8000
Flags: HMW
LayerCount: 2
Fore
SplineSet
5840 -80 m 0
 4936 -80 4240 296 4240 1120 c 0
 4240 2424 5336 3440 6560 3440 c 0
 7464 3440 8160 3064 8160 2240 c 0
 8160 936 7064 -80 5840 -80 c 0
6640 3336 m 0
 6288 3336 5600 1040 5600 384 c 0
 5600 208 5648 32 5760 32 c 0
 6112 32 6760 2360 6760 3016 c 0
 6760 3192 6752 3336 6640 3336 c 0
7016 6000 m 1
 7160 6000 l 1
 1688 0 l 1
 1544 0 l 1
 7016 6000 l 1
2200 2560 m 0
 1296 2560 600 2936 600 3760 c 0
 600 5064 1696 6080 2920 6080 c 0
 3824 6080 4520 5704 4520 4880 c 0
 4520 3576 3424 2560 2200 2560 c 0
3000 5968 m 0
 2648 5968 1960 3680 1960 3024 c 0
 1960 2848 2008 2672 2120 2672 c 0
 2472 2672 3120 5000 3120 5656 c 0
 3120 5832 3112 5968 3000 5968 c 0
EndSplineSet
EndChar

StartChar: hyphen
Encoding: 45 45 85
GlifName: hyphen
Width: 2880
Flags: HMW
LayerCount: 2
Fore
SplineSet
664 2256 m 1
 2584 2256 l 1
 2584 2144 l 1
 664 2144 l 1
 664 2256 l 1
EndSplineSet
EndChar

StartChar: plus
Encoding: 43 43 87
GlifName: plus
Width: 4240
Flags: HMW
LayerCount: 2
Fore
SplineSet
1944 880 m 1
 2704 4160 l 1
 2816 4160 l 1
 2056 880 l 1
 1944 880 l 1
744 2584 m 1
 4024 2584 l 1
 4024 2472 l 1
 744 2472 l 1
 744 2584 l 1
EndSplineSet
EndChar

StartChar: less
Encoding: 60 60 89
GlifName: less
Width: 4480
Flags: HMW
LayerCount: 2
Fore
SplineSet
880 3056 m 1
 880 3168 l 1
 4720 4800 l 1
 4720 4688 l 1
 880 3056 l 1
880 3032 m 1
 880 3144 l 1
 4000 1512 l 1
 4000 1400 l 1
 880 3032 l 1
EndSplineSet
EndChar

StartChar: backslash
Encoding: 92 92 91
GlifName: backslash
Width: 4160
Flags: HMW
LayerCount: 2
Fore
SplineSet
1568 6240 m 1
 3280 -1200 l 1
 3152 -1200 l 1
 1440 6240 l 1
 1568 6240 l 1
EndSplineSet
EndChar

StartChar: bracketleft
Encoding: 91 91 92
GlifName: bracketleft
Width: 3240
Flags: HMW
LayerCount: 2
Fore
SplineSet
1600 6240 m 1
 4080 6240 l 1
 4080 6128 l 1
 3088 6128 l 1
 1472 -1088 l 1
 2400 -1088 l 1
 2400 -1200 l 1
 -80 -1200 l 1
 1600 6240 l 1
EndSplineSet
EndChar

StartChar: braceleft
Encoding: 123 123 93
GlifName: braceleft
Width: 2976
VWidth: 9240
Flags: HMW
LayerCount: 2
Fore
SplineSet
3856 6240 m 1
 3856 6080 l 1
 3360 6080 2800 5680 2800 4936 c 0
 2800 4488 2912 4248 2912 3768 c 0
 2912 2864 1512 2560 680 2480 c 1
 680 2600 l 1
 920 2680 1440 2848 1440 3256 c 0
 1440 3760 1216 3872 1216 4568 c 0
 1216 5680 2536 6240 3856 6240 c 1
2176 -1200 m 1
 856 -1200 40 -952 40 -80 c 0
 40 936 1080 1456 1080 1960 c 0
 1080 2288 920 2360 680 2440 c 1
 680 2560 l 1
 1512 2480 2336 2344 2336 1600 c 0
 2336 800 1584 240 1584 -368 c 0
 1584 -712 1680 -1040 2176 -1040 c 1
 2176 -1200 l 1
EndSplineSet
EndChar

StartChar: bar
Encoding: 124 124 96
GlifName: bar
Width: 1840
VWidth: 9240
Flags: HMW
LayerCount: 2
Fore
SplineSet
1992 6240 m 1
 2096 6240 l 1
 176 -2000 l 1
 72 -2000 l 1
 1992 6240 l 1
EndSplineSet
EndChar

StartChar: cent
Encoding: 162 162 98
GlifName: cent
Width: 4240
VWidth: 9240
Flags: HMW
LayerCount: 2
Fore
SplineSet
3024 4440 m 1
 1664 -680 l 1
 1552 -680 l 1
 2912 4440 l 1
 3024 4440 l 1
EndSplineSet
Refer: 40 99 N 1 0 0 1 0 0 2
EndChar

StartChar: sterling
Encoding: 163 163 99
GlifName: sterling
Width: 5472
VWidth: 9240
Flags: HMW
LayerCount: 2
Fore
SplineSet
5536 2216 m 1
 5376 1024 4648 -240 3504 -240 c 0
 2408 -240 1632 240 1128 240 c 0
 768 240 496 80 368 -160 c 1
 304 -160 l 1
 624 752 1856 1736 2680 1736 c 0
 3432 1736 3616 1464 4256 1464 c 0
 4792 1464 5264 1560 5424 2216 c 1
 5536 2216 l 1
4920 3240 m 1
 4920 3128 l 1
 520 3128 l 1
 520 3240 l 1
 4920 3240 l 1
1264 4160 m 0
 1264 5360 2752 6080 4200 6080 c 0
 5496 6080 5976 5424 5976 4608 c 0
 5976 4040 5544 3632 5064 3632 c 0
 4544 3632 4128 4000 4128 4560 c 0
 4128 5080 4592 5400 5064 5400 c 0
 5504 5400 5768 5096 5864 4872 c 1
 5704 5608 5168 5928 4520 5928 c 0
 3728 5928 3272 5232 3272 4640 c 0
 3272 4168 3440 4040 3440 3440 c 0
 3440 1760 344 1560 368 -160 c 1
 256 -160 l 1
 184 952 1512 1496 1512 2488 c 0
 1512 3000 1264 3480 1264 4160 c 0
EndSplineSet
EndChar

StartChar: section
Encoding: 167 167 101
GlifName: section
Width: 3792
VWidth: 9240
Flags: HMW
LayerCount: 2
Fore
SplineSet
2008 5184 m 0
 2008 4304 3904 4504 3904 3312 c 0
 3904 2688 3200 2384 2776 2112 c 1
 2704 2144 l 1
 2928 2320 3032 2392 3032 2712 c 0
 3032 3416 1104 3128 1104 4504 c 0
 1104 5336 2104 6080 3024 6080 c 0
 3808 6080 4360 5616 4360 5088 c 0
 4360 4600 4056 4320 3616 4320 c 0
 3216 4320 2944 4560 2944 5008 c 0
 2944 5344 3248 5608 3592 5608 c 0
 3952 5608 4072 5472 4176 5352 c 1
 4096 5576 3800 5968 3024 5968 c 0
 2440 5968 2008 5640 2008 5184 c 0
3520 1536 m 0
 3520 704 2480 -80 1400 -80 c 0
 696 -80 -152 224 -152 992 c 0
 -152 1400 152 1728 632 1728 c 0
 1032 1728 1320 1512 1320 1144 c 0
 1320 728 1016 440 624 440 c 0
 296 440 88 616 -24 792 c 1
 160 192 896 16 1400 16 c 0
 2224 16 2640 504 2640 776 c 0
 2640 1520 552 1456 552 2600 c 0
 552 3176 1264 3792 1696 3920 c 1
 1800 3920 l 1
 1656 3872 1432 3728 1432 3448 c 0
 1432 2744 3520 2672 3520 1536 c 0
EndSplineSet
EndChar

StartChar: brokenbar
Encoding: 166 166 102
GlifName: brokenbar
Width: 1760
VWidth: 9240
Flags: HMW
LayerCount: 2
Fore
SplineSet
824 1328 m 1
 920 1328 l 1
 152 -2000 l 1
 56 -2000 l 1
 824 1328 l 1
1960 6240 m 1
 2056 6240 l 1
 1368 3272 l 1
 1272 3272 l 1
 1960 6240 l 1
EndSplineSet
EndChar

StartChar: asciitilde
Encoding: 126 126 104
GlifName: asciitilde
Width: 5504
VWidth: 9240
Flags: HMW
LayerCount: 2
Fore
SplineSet
2104 3256 m 0
 1680 3256 1480 3080 1360 2744 c 1
 1200 2744 l 1
 1440 3664 1760 4320 2552 4320 c 0
 3432 4320 3512 3568 4280 3568 c 0
 4784 3568 4984 3744 5104 4080 c 1
 5264 4080 l 1
 5024 3160 4704 2504 3912 2504 c 0
 2896 2504 2928 3256 2104 3256 c 0
EndSplineSet
EndChar

StartChar: copyright
Encoding: 169 169 105
GlifName: copyright
Width: 6960
Flags: HMW
LayerCount: 2
Fore
SplineSet
680 2440 m 0
 680 4304 2456 6080 4320 6080 c 0
 5864 6080 7000 5104 7000 3560 c 0
 7000 1696 5224 -80 3360 -80 c 0
 1816 -80 680 896 680 2440 c 0
792 2440 m 0
 792 960 1880 32 3360 32 c 0
 5160 32 6888 1760 6888 3560 c 0
 6888 5040 5800 5968 4320 5968 c 0
 2520 5968 792 4240 792 2440 c 0
EndSplineSet
Refer: 14 67 N 0.6 0 0 0.6 1696 1200 2
EndChar

StartChar: registered
Encoding: 174 174 106
GlifName: registered
Width: 6960
Flags: HMW
LayerCount: 2
Fore
SplineSet
680 2440 m 0
 680 4304 2456 6080 4320 6080 c 0
 5864 6080 7000 5104 7000 3560 c 0
 7000 1696 5224 -80 3360 -80 c 0
 1816 -80 680 896 680 2440 c 0
792 2440 m 0
 792 960 1880 32 3360 32 c 0
 5160 32 6888 1760 6888 3560 c 0
 6888 5040 5800 5968 4320 5968 c 0
 2520 5968 792 4240 792 2440 c 0
EndSplineSet
Refer: 29 82 S 0.6 0 0 0.6 1824 1184 2
EndChar

StartChar: logicalnot
Encoding: 172 172 107
GlifName: logicalnot
Width: 3888
Flags: HMW
LayerCount: 2
Fore
SplineSet
3992 4808 m 1
 1200 4808 l 1
 1200 4920 l 1
 4128 4920 l 1
 3768 3304 l 1
 3664 3304 l 1
 3992 4808 l 1
EndSplineSet
EndChar

StartChar: guillemotleft
Encoding: 171 171 108
GlifName: guillemotleft
Width: 5560
Flags: HMW
LayerCount: 2
Fore
SplineSet
4648 3104 m 1
 5136 1216 l 1
 5080 1160 l 1
 2840 3000 l 1
 2840 3200 l 1
 5960 5040 l 1
 6016 4984 l 1
 4648 3104 l 1
2408 3104 m 1
 2896 1216 l 1
 2840 1160 l 1
 600 3000 l 1
 600 3200 l 1
 3720 5040 l 1
 3776 4984 l 1
 2408 3104 l 1
EndSplineSet
EndChar

StartChar: mu
Encoding: 181 181 111
GlifName: mu
Width: 5680
VWidth: 9240
Flags: HMW
LayerCount: 2
Fore
SplineSet
184 -728 m 2
 16 -1448 104 -1960 784 -2000 c 1
 872 -1984 l 1
 656 -1856 552 -1672 552 -1448 c 0
 552 -1176 776 -992 1040 -992 c 0
 1304 -992 1528 -1216 1528 -1520 c 0
 1528 -1832 1352 -2080 768 -2080 c 0
 48 -2080 -104 -1488 72 -728 c 2
 832 2568 l 1
 944 2568 l 1
 184 -728 l 2
EndSplineSet
Refer: 58 117 N 1 0 0 1 0 0 2
EndChar

StartChar: asciicircum
Encoding: 94 94 113
GlifName: asciicircum
Width: 4360
Flags: HMW
LayerCount: 2
Fore
SplineSet
3264 5784 m 1
 1760 4960 l 1
 1680 5040 l 1
 3040 6160 l 1
 3560 6160 l 1
 4440 5040 l 1
 4360 4960 l 1
 3264 5784 l 1
EndSplineSet
EndChar

StartChar: degree
Encoding: 176 176 115
GlifName: degree
Width: 2560
Flags: HMW
LayerCount: 2
Fore
SplineSet
1552 5440 m 0
 1552 5968 1984 6400 2512 6400 c 0
 3040 6400 3472 5968 3472 5440 c 0
 3472 4912 3040 4480 2512 4480 c 0
 1984 4480 1552 4912 1552 5440 c 0
1896 5440 m 0
 1896 5088 2160 4824 2512 4824 c 0
 2864 4824 3128 5088 3128 5440 c 0
 3128 5792 2864 6056 2512 6056 c 0
 2160 6056 1896 5792 1896 5440 c 0
EndSplineSet
EndChar

StartChar: onequarter
Encoding: 188 188 119
GlifName: onequarter
Width: 5128
Flags: HMW
LayerCount: 2
Fore
SplineSet
4992 5200 m 1
 5088 5200 l 1
 -40 -800 l 1
 -136 -800 l 1
 4992 5200 l 1
EndSplineSet
Refer: 6 52 N 0.6 0 0 0.6 1920 -824 2
Refer: 3 49 N 0.6 0 0 0.6 816 2848 2
EndChar

StartChar: onehalf
Encoding: 189 189 120
GlifName: onehalf
Width: 5360
Flags: HMW
LayerCount: 2
Fore
SplineSet
4992 5200 m 1
 5088 5200 l 1
 -40 -800 l 1
 -136 -800 l 1
 4992 5200 l 1
EndSplineSet
Refer: 4 50 N 0.6 0 0 0.6 2728 -808 2
Refer: 3 49 N 0.6 0 0 0.6 816 2848 2
EndChar

StartChar: threequarters
Encoding: 190 190 121
GlifName: threequarters
Width: 5608
Flags: HMW
LayerCount: 2
Fore
SplineSet
5472 5200 m 1
 5568 5200 l 1
 440 -800 l 1
 344 -800 l 1
 5472 5200 l 1
EndSplineSet
Refer: 5 51 N 0.6 0 0 0.6 680 2832 2
Refer: 6 52 N 0.6 0 0 0.6 2400 -824 2
EndChar

StartChar: grave
Encoding: 96 96 123
GlifName: grave
Width: 3320
Flags: HMW
LayerCount: 2
Fore
SplineSet
2272 5440 m 2
 1880 5360 1512 5648 1512 6040 c 0
 1512 6432 1952 6800 2352 6624 c 2
 4016 5896 l 1
 3992 5784 l 1
 2272 5440 l 2
EndSplineSet
EndChar

StartChar: acute
Encoding: 180 180 124
GlifName: acute
Width: 3320
Flags: HMW
LayerCount: 2
Fore
SplineSet
3560 5360 m 2
 1840 5704 l 1
 1816 5816 l 1
 3480 6544 l 2
 3880 6720 4320 6352 4320 5960 c 0
 4320 5568 3952 5280 3560 5360 c 2
EndSplineSet
EndChar

StartChar: multiply
Encoding: 215 215 127
GlifName: multiply
Width: 4240
Flags: HMW
LayerCount: 2
Fore
SplineSet
3240 1320 m 1
 1440 3640 l 1
 1520 3720 l 1
 3320 1400 l 1
 3240 1320 l 1
912 1408 m 1
 3752 3728 l 1
 3832 3648 l 1
 992 1328 l 1
 912 1408 l 1
EndSplineSet
EndChar

StartChar: cedilla
Encoding: 184 184 128
GlifName: cedilla
Width: 4400
Flags: HMW
LayerCount: 2
Fore
SplineSet
1896 -632 m 1
 2856 328 l 1
 3008 328 l 1
 2048 -632 l 1
 1896 -632 l 1
1896 -632 m 1
 2272 -312 l 1
 2952 -312 3632 -400 3632 -880 c 0
 3632 -1520 2656 -1760 1608 -1760 c 1
 1608 -1648 l 1
 2080 -1648 2392 -1424 2392 -1040 c 0
 2392 -776 2256 -632 1896 -632 c 1
EndSplineSet
EndChar

StartChar: ring
Encoding: 730 730 271
GlifName: ring
Width: 2560
VWidth: 0
Flags: HMW
LayerCount: 2
Fore
SplineSet
1320 5440 m 0
 1320 5848 1672 6160 2240 6160 c 0
 2808 6160 3160 5848 3160 5440 c 0
 3160 5032 2808 4720 2240 4720 c 0
 1672 4720 1320 5032 1320 5440 c 0
1984 5048 m 0
 1984 4952 1984 4832 2120 4832 c 0
 2336 4832 2496 5576 2496 5832 c 0
 2496 5928 2496 6048 2360 6048 c 0
 2144 6048 1984 5304 1984 5048 c 0
EndSplineSet
EndChar

StartChar: tilde
Encoding: 732 732 272
GlifName: tilde
Width: 3584
VWidth: 0
Flags: HMW
LayerCount: 2
Fore
SplineSet
1808 5112 m 0
 1624 5112 1432 5056 1272 4800 c 1
 1160 4800 l 1
 1320 5480 1600 6056 2232 6056 c 0
 2792 6056 3136 5424 3536 5424 c 0
 3720 5424 3912 5480 4072 5736 c 1
 4184 5736 l 1
 4024 4976 3824 4480 3192 4480 c 0
 2576 4480 2264 5112 1808 5112 c 0
EndSplineSet
EndChar

StartChar: AE
Encoding: 198 198 274
GlifName: A_E_
Width: 8480
Flags: HMW
LayerCount: 2
Fore
SplineSet
5992 6000 m 1
 9232 6000 l 1
 8848 4360 l 1
 8736 4360 l 1
 8696 5216 8208 5888 7272 5888 c 2
 5992 5888 l 1
 5992 6000 l 1
6224 3048 m 2
 5736 3048 l 1
 5736 3160 l 1
 6224 3160 l 2
 6680 3160 7216 3648 7576 4184 c 1
 7688 4184 l 1
 7176 1984 l 1
 7064 1984 l 1
 6944 2520 6680 3048 6224 3048 c 2
7920 0 m 1
 3200 0 l 1
 3200 112 l 1
 5880 112 l 2
 6976 112 7752 784 8224 1800 c 1
 8336 1800 l 1
 7920 0 l 1
5272 6000 m 1
 6992 6000 l 1
 5600 0 l 1
 3880 0 l 1
 5272 6000 l 1
2072 2016 m 1
 4440 2016 l 1
 4440 1904 l 1
 2072 1904 l 1
 2072 2016 l 1
5192 6000 m 1
 5328 6000 l 1
 600 0 l 1
 440 0 l 1
 5192 6000 l 1
-200 112 m 1
 1560 112 l 1
 1560 0 l 1
 -200 0 l 1
 -200 112 l 1
EndSplineSet
EndChar

StartChar: ae
Encoding: 230 230 277
GlifName: ae
Width: 7304
VWidth: 9240
Flags: HMW
LayerCount: 2
Fore
SplineSet
2192 2064 m 2
 2944 2064 l 1
 2944 1952 l 1
 2672 1952 l 2
 2224 1952 1704 1280 1704 544 c 0
 1704 168 1800 40 1920 40 c 0
 2296 40 2528 664 2704 1448 c 2
 2928 2440 l 2
 3040 2952 2984 3640 2424 3640 c 0
 2120 3640 1840 3544 1680 3448 c 1
 2048 3568 2592 3440 2592 2944 c 0
 2592 2544 2240 2168 1720 2168 c 0
 1160 2168 904 2400 904 2768 c 0
 904 3264 1616 3744 2504 3744 c 0
 3544 3744 4336 3488 4208 2440 c 1
 3944 1448 l 1
 3760 456 2568 -80 1520 -80 c 0
 728 -80 144 152 144 744 c 0
 144 1496 896 2064 2192 2064 c 2
5864 3088 m 0
 5864 3384 5816 3656 5648 3656 c 0
 5336 3656 4712 2272 4712 960 c 0
 4712 448 4840 144 5232 144 c 0
 5656 144 6280 544 6728 1144 c 1
 6832 1144 l 1
 6440 528 5720 -80 4592 -80 c 0
 3944 -80 3320 320 3320 1280 c 1
 3480 1240 l 1
 3496 2760 4528 3760 5808 3760 c 0
 6464 3760 7272 3552 7272 2896 c 0
 7272 1616 4888 1568 4640 1568 c 1
 4640 1664 l 1
 4872 1664 5864 2064 5864 3088 c 0
EndSplineSet
EndChar

StartChar: perthousand
Encoding: 8240 8240 285
GlifName: perthousand
Width: 12160
Flags: HMW
LayerCount: 2
Fore
SplineSet
10000 -80 m 0
 9096 -80 8400 296 8400 1120 c 0
 8400 2424 9496 3440 10720 3440 c 0
 11624 3440 12320 3064 12320 2240 c 0
 12320 936 11224 -80 10000 -80 c 0
10800 3336 m 0
 10448 3336 9760 1040 9760 384 c 0
 9760 208 9808 32 9920 32 c 0
 10272 32 10920 2360 10920 3016 c 0
 10920 3192 10912 3336 10800 3336 c 0
5840 -80 m 0
 4936 -80 4240 296 4240 1120 c 0
 4240 2424 5336 3440 6560 3440 c 0
 7464 3440 8160 3064 8160 2240 c 0
 8160 936 7064 -80 5840 -80 c 0
6640 3336 m 0
 6288 3336 5600 1040 5600 384 c 0
 5600 208 5648 32 5760 32 c 0
 6112 32 6760 2360 6760 3016 c 0
 6760 3192 6752 3336 6640 3336 c 0
7016 6000 m 1
 7160 6000 l 1
 1688 0 l 1
 1544 0 l 1
 7016 6000 l 1
2200 2560 m 0
 1296 2560 600 2936 600 3760 c 0
 600 5064 1696 6080 2920 6080 c 0
 3824 6080 4520 5704 4520 4880 c 0
 4520 3576 3424 2560 2200 2560 c 0
3000 5968 m 0
 2648 5968 1960 3680 1960 3024 c 0
 1960 2848 2008 2672 2120 2672 c 0
 2472 2672 3120 5000 3120 5656 c 0
 3120 5832 3112 5968 3000 5968 c 0
EndSplineSet
EndChar

StartChar: uni2031
Encoding: 8241 8241 286
GlifName: uni2031
Width: 16320
Flags: HMW
LayerCount: 2
Fore
SplineSet
14160 -80 m 0
 13256 -80 12560 296 12560 1120 c 0
 12560 2424 13656 3440 14880 3440 c 0
 15784 3440 16480 3064 16480 2240 c 0
 16480 936 15384 -80 14160 -80 c 0
14960 3336 m 0
 14608 3336 13920 1040 13920 384 c 0
 13920 208 13968 32 14080 32 c 0
 14432 32 15080 2360 15080 3016 c 0
 15080 3192 15072 3336 14960 3336 c 0
10000 -80 m 0
 9096 -80 8400 296 8400 1120 c 0
 8400 2424 9496 3440 10720 3440 c 0
 11624 3440 12320 3064 12320 2240 c 0
 12320 936 11224 -80 10000 -80 c 0
10800 3336 m 0
 10448 3336 9760 1040 9760 384 c 0
 9760 208 9808 32 9920 32 c 0
 10272 32 10920 2360 10920 3016 c 0
 10920 3192 10912 3336 10800 3336 c 0
5840 -80 m 0
 4936 -80 4240 296 4240 1120 c 0
 4240 2424 5336 3440 6560 3440 c 0
 7464 3440 8160 3064 8160 2240 c 0
 8160 936 7064 -80 5840 -80 c 0
6640 3336 m 0
 6288 3336 5600 1040 5600 384 c 0
 5600 208 5648 32 5760 32 c 0
 6112 32 6760 2360 6760 3016 c 0
 6760 3192 6752 3336 6640 3336 c 0
7016 6000 m 1
 7160 6000 l 1
 1688 0 l 1
 1544 0 l 1
 7016 6000 l 1
2200 2560 m 0
 1296 2560 600 2936 600 3760 c 0
 600 5064 1696 6080 2920 6080 c 0
 3824 6080 4520 5704 4520 4880 c 0
 4520 3576 3424 2560 2200 2560 c 0
3000 5968 m 0
 2648 5968 1960 3680 1960 3024 c 0
 1960 2848 2008 2672 2120 2672 c 0
 2472 2672 3120 5000 3120 5656 c 0
 3120 5832 3112 5968 3000 5968 c 0
EndSplineSet
EndChar

StartChar: uniFB00
Encoding: 64256 64256 290
GlifName: uniF_B_00
Width: 6672
VWidth: 9240
Flags: HMW
LayerCount: 2
Fore
SplineSet
688 3680 m 1
 6688 3680 l 1
 6688 3568 l 1
 688 3568 l 1
 688 3680 l 1
7504 5608 m 1
 7400 5776 7056 5952 6720 5952 c 0
 6160 5952 5816 5296 5648 4320 c 2
 4952 304 l 2
 4680 -1248 3608 -1680 2568 -1680 c 0
 1680 -1680 1152 -1144 1152 -648 c 0
 1152 -160 1440 168 1920 168 c 0
 2360 168 2776 -104 2776 -584 c 0
 2776 -1064 2416 -1376 1992 -1376 c 0
 1816 -1376 1648 -1296 1600 -1208 c 1
 1704 -1376 2048 -1552 2384 -1552 c 0
 2944 -1552 3288 -896 3456 80 c 2
 4152 4096 l 2
 4424 5648 5496 6080 6536 6080 c 0
 7424 6080 7952 5544 7952 5048 c 0
 7952 4560 7664 4232 7184 4232 c 0
 6744 4232 6328 4504 6328 4984 c 0
 6328 5464 6688 5776 7112 5776 c 0
 7280 5776 7424 5704 7504 5608 c 1
4712 5208 m 1
 4608 5376 4264 5552 3928 5552 c 0
 3368 5552 3072 5152 2904 4176 c 2
 2160 -96 l 2
 1888 -1648 816 -2080 -224 -2080 c 0
 -1112 -2080 -1640 -1544 -1640 -1048 c 0
 -1640 -560 -1352 -232 -872 -232 c 0
 -432 -232 -16 -504 -16 -984 c 0
 -16 -1464 -376 -1776 -800 -1776 c 0
 -976 -1776 -1144 -1696 -1192 -1608 c 1
 -1088 -1776 -744 -1952 -408 -1952 c 0
 152 -1952 496 -1296 664 -320 c 2
 1360 3696 l 2
 1632 5248 2704 5680 3744 5680 c 0
 4632 5680 5160 5144 5160 4648 c 0
 5160 4160 4872 3832 4392 3832 c 0
 3952 3832 3536 4104 3536 4584 c 0
 3536 5064 3896 5376 4320 5376 c 0
 4488 5376 4632 5304 4712 5208 c 1
EndSplineSet
Ligature2: "'liga' Standard Ligatures lookup 0-1" f f
LCarets2: 1 0
EndChar

StartChar: uniFB01
Encoding: 64257 64257 291
GlifName: uniF_B_01
Width: 6272
VWidth: 9240
Flags: HMW
LayerCount: 2
Fore
SplineSet
6112 1304 m 1
 5808 504 5176 -80 4288 -80 c 0
 3672 -80 3360 104 3360 664 c 0
 3360 704 3360 792 3376 840 c 2
 4072 3568 l 1
 688 3568 l 1
 688 3680 l 1
 5616 3680 l 1
 4824 552 l 2
 4816 504 4808 448 4808 408 c 0
 4808 320 4848 240 4952 240 c 0
 5304 240 5792 736 6008 1336 c 1
 6112 1304 l 1
5184 5608 m 1
 5064 5808 4712 5952 4320 5952 c 0
 3648 5952 3104 5320 2928 4320 c 2
 2160 -96 l 2
 1888 -1648 816 -2080 -224 -2080 c 0
 -1112 -2080 -1640 -1544 -1640 -1048 c 0
 -1640 -560 -1352 -232 -872 -232 c 0
 -432 -232 -16 -504 -16 -984 c 0
 -16 -1464 -376 -1776 -800 -1776 c 0
 -976 -1776 -1144 -1696 -1192 -1608 c 1
 -1088 -1776 -744 -1952 -408 -1952 c 0
 152 -1952 496 -1296 664 -320 c 2
 1432 4096 l 2
 1704 5648 2936 6080 4136 6080 c 0
 5144 6080 5632 5576 5632 5048 c 0
 5632 4560 5344 4232 4864 4232 c 0
 4424 4232 4008 4504 4008 4984 c 0
 4008 5464 4368 5776 4792 5776 c 0
 4952 5776 5120 5704 5184 5608 c 1
EndSplineSet
Ligature2: "'liga' Standard Ligatures lookup 0-1" f i
LCarets2: 1 0
EndChar

StartChar: uniFB02
Encoding: 64258 64258 292
GlifName: uniF_B_02
Width: 6712
VWidth: 9240
Flags: HMW
LayerCount: 2
Fore
SplineSet
6552 1304 m 5
 6248 504 5616 -80 4728 -80 c 4
 4112 -80 3800 104 3800 664 c 4
 3800 704 3808 792 3816 840 c 6
 4960 5840 l 5
 6552 6160 l 5
 5264 552 l 6
 5256 504 5248 448 5248 408 c 4
 5248 320 5288 240 5392 240 c 4
 5736 240 6232 728 6448 1336 c 5
 6552 1304 l 5
688 3680 m 5
 3968 3680 l 5
 3968 3568 l 5
 688 3568 l 5
 688 3680 l 5
5472 5048 m 4
 5472 4560 5184 4232 4704 4232 c 4
 4264 4232 3848 4504 3848 4984 c 4
 3848 5464 4208 5776 4632 5776 c 4
 4792 5776 4960 5704 5024 5608 c 5
 4920 5776 4528 5952 4192 5952 c 4
 3576 5952 3096 5296 2928 4320 c 6
 2160 -96 l 6
 1888 -1648 816 -2080 -224 -2080 c 4
 -1112 -2080 -1640 -1544 -1640 -1048 c 4
 -1640 -560 -1352 -232 -872 -232 c 4
 -432 -232 -16 -504 -16 -984 c 4
 -16 -1464 -376 -1776 -800 -1776 c 4
 -976 -1776 -1144 -1696 -1192 -1608 c 5
 -1088 -1776 -744 -1952 -408 -1952 c 4
 152 -1952 496 -1296 664 -320 c 6
 1432 4096 l 6
 1712 5696 2904 6080 4056 6080 c 4
 4856 6080 5472 5576 5472 5048 c 4
EndSplineSet
Ligature2: "'liga' Standard Ligatures lookup 0-1" f l
LCarets2: 1 0
EndChar

StartChar: uniFB03
Encoding: 64259 64259 293
GlifName: uniF_B_03
Width: 8992
VWidth: 9240
Flags: HMW
LayerCount: 2
Fore
SplineSet
8832 1304 m 5
 8528 504 7896 -80 7008 -80 c 4
 6392 -80 6080 104 6080 664 c 4
 6080 704 6080 792 6096 840 c 6
 6792 3568 l 5
 688 3568 l 5
 688 3680 l 5
 8336 3680 l 5
 7544 552 l 6
 7536 504 7528 448 7528 408 c 4
 7528 320 7568 240 7672 240 c 4
 8024 240 8512 736 8728 1336 c 5
 8832 1304 l 5
8352 5048 m 4
 8352 4560 8064 4232 7584 4232 c 4
 7144 4232 6728 4504 6728 4984 c 4
 6728 5464 7088 5776 7512 5776 c 4
 7672 5776 7840 5704 7904 5608 c 5
 7784 5808 7432 5952 7040 5952 c 4
 6368 5952 5824 5320 5648 4320 c 6
 4952 304 l 6
 4680 -1248 3608 -1680 2568 -1680 c 4
 1680 -1680 1152 -1144 1152 -648 c 4
 1152 -160 1440 168 1920 168 c 4
 2360 168 2776 -104 2776 -584 c 4
 2776 -1064 2424 -1376 2000 -1376 c 4
 1824 -1376 1656 -1296 1608 -1208 c 5
 1712 -1376 2048 -1552 2384 -1552 c 4
 2944 -1552 3288 -896 3456 80 c 6
 4152 4096 l 6
 4424 5648 5656 6080 6856 6080 c 4
 7840 6080 8352 5544 8352 5048 c 4
4712 5208 m 5
 4608 5376 4264 5552 3928 5552 c 4
 3368 5552 3072 5152 2904 4176 c 6
 2160 -96 l 6
 1888 -1648 816 -2080 -224 -2080 c 4
 -1112 -2080 -1640 -1544 -1640 -1048 c 4
 -1640 -560 -1352 -232 -872 -232 c 4
 -432 -232 -16 -504 -16 -984 c 4
 -16 -1464 -376 -1776 -800 -1776 c 4
 -976 -1776 -1144 -1696 -1192 -1608 c 5
 -1088 -1776 -744 -1952 -408 -1952 c 4
 152 -1952 496 -1296 664 -320 c 6
 1360 3696 l 6
 1632 5248 2704 5680 3744 5680 c 4
 4632 5680 5160 5144 5160 4648 c 4
 5160 4160 4872 3832 4392 3832 c 4
 3952 3832 3536 4104 3536 4584 c 4
 3536 5064 3896 5376 4320 5376 c 4
 4496 5376 4632 5304 4712 5208 c 5
EndSplineSet
Ligature2: "'liga' Standard Ligatures lookup 0-1" f f i
LCarets2: 2 0 0
EndChar

StartChar: uniFB04
Encoding: 64260 64260 294
GlifName: uniF_B_04
Width: 9432
VWidth: 9240
Flags: HMW
LayerCount: 2
Fore
SplineSet
9272 1304 m 1
 8968 504 8336 -80 7448 -80 c 0
 6832 -80 6520 104 6520 664 c 0
 6520 704 6528 792 6536 840 c 2
 7680 5840 l 1
 9272 6160 l 1
 7984 552 l 2
 7976 504 7968 448 7968 408 c 0
 7968 320 8008 240 8112 240 c 0
 8456 240 8952 728 9168 1336 c 1
 9272 1304 l 1
688 3680 m 1
 6688 3680 l 1
 6688 3568 l 1
 688 3568 l 1
 688 3680 l 1
7744 5608 m 1
 7640 5776 7248 5952 6912 5952 c 0
 6296 5952 5816 5296 5648 4320 c 2
 4952 304 l 2
 4680 -1248 3608 -1680 2568 -1680 c 0
 1680 -1680 1152 -1144 1152 -648 c 0
 1152 -160 1440 168 1920 168 c 0
 2360 168 2776 -104 2776 -584 c 0
 2776 -1064 2416 -1376 1992 -1376 c 0
 1816 -1376 1648 -1296 1600 -1208 c 1
 1704 -1376 2048 -1552 2384 -1552 c 0
 2944 -1552 3288 -896 3456 80 c 2
 4152 4096 l 2
 4432 5696 5624 6080 6776 6080 c 0
 7664 6080 8192 5544 8192 5048 c 0
 8192 4560 7904 4232 7424 4232 c 0
 6984 4232 6568 4504 6568 4984 c 0
 6568 5464 6928 5776 7352 5776 c 0
 7520 5776 7672 5704 7744 5608 c 1
4712 5208 m 1
 4608 5376 4264 5552 3928 5552 c 0
 3368 5552 3072 5152 2904 4176 c 2
 2160 -96 l 2
 1888 -1648 816 -2080 -224 -2080 c 0
 -1112 -2080 -1640 -1544 -1640 -1048 c 0
 -1640 -560 -1352 -232 -872 -232 c 0
 -432 -232 -16 -504 -16 -984 c 0
 -16 -1464 -376 -1776 -800 -1776 c 0
 -976 -1776 -1144 -1696 -1192 -1608 c 1
 -1088 -1776 -744 -1952 -408 -1952 c 0
 152 -1952 496 -1296 664 -320 c 2
 1360 3696 l 2
 1632 5248 2704 5680 3744 5680 c 0
 4632 5680 5160 5144 5160 4648 c 0
 5160 4160 4872 3832 4392 3832 c 0
 3952 3832 3536 4104 3536 4584 c 0
 3536 5064 3896 5376 4320 5376 c 0
 4480 5376 4648 5304 4712 5208 c 1
EndSplineSet
Ligature2: "'liga' Standard Ligatures lookup 0-1" f f l
LCarets2: 2 0 0
EndChar

StartChar: ogonek
Encoding: 731 731 295
GlifName: ogonek
Width: 4400
Flags: HMW
LayerCount: 2
Fore
SplineSet
3104 -904 m 1
 2984 -1128 2592 -1648 1784 -1648 c 0
 1216 -1648 784 -1448 784 -1048 c 0
 784 -408 1944 104 2752 344 c 1
 2776 288 l 1
 2528 120 2224 -416 2224 -920 c 0
 2224 -1216 2288 -1352 2440 -1352 c 0
 2672 -1352 2928 -1032 3016 -864 c 1
 3104 -904 l 1
EndSplineSet
EndChar

StartChar: dotlessi
Encoding: 305 305 296
GlifName: dotlessi
Width: 3312
VWidth: 9240
Flags: HMW
LayerCount: 2
Fore
SplineSet
3152 1304 m 1
 2848 504 2216 -80 1328 -80 c 0
 712 -80 400 104 400 664 c 0
 400 704 400 792 416 840 c 2
 1112 3568 l 1
 480 3568 l 1
 480 3680 l 1
 2656 3680 l 1
 1864 552 l 2
 1856 504 1848 448 1848 408 c 0
 1848 320 1888 240 1992 240 c 0
 2344 240 2832 736 3048 1336 c 1
 3152 1304 l 1
EndSplineSet
EndChar

StartChar: uni0237
Encoding: 567 567 297
GlifName: uni0237
Width: 2696
VWidth: 9240
Flags: HMW
LayerCount: 2
Fore
SplineSet
-1360 -1632 m 1
 -1240 -1792 -904 -1944 -536 -1944 c 0
 264 -1944 136 -800 360 160 c 2
 1152 3568 l 1
 424 3568 l 1
 424 3680 l 1
 2704 3680 l 1
 1920 -96 l 2
 1712 -1096 544 -2080 -496 -2080 c 0
 -1224 -2080 -1880 -1624 -1880 -1088 c 0
 -1880 -600 -1464 -232 -984 -232 c 0
 -544 -232 -176 -560 -176 -936 c 0
 -176 -1392 -568 -1760 -1032 -1760 c 0
 -1168 -1760 -1280 -1704 -1360 -1632 c 1
EndSplineSet
EndChar

StartChar: kgreenlandic
Encoding: 312 312 306
GlifName: kgreenlandic
Width: 5416
VWidth: 9240
Flags: HMW
LayerCount: 2
Fore
SplineSet
5216 1304 m 1
 4912 504 4360 -80 3552 -80 c 0
 2936 -80 2488 104 2488 664 c 0
 2488 704 2496 792 2504 840 c 2
 2560 1120 l 2
 2656 1584 2896 2120 2672 2120 c 0
 2472 2120 2304 1824 2232 1520 c 1
 2152 1520 l 1
 2344 2176 2560 2352 3128 2352 c 0
 3680 2352 4256 2008 4016 968 c 2
 3912 392 l 2
 3912 376 3904 336 3904 320 c 0
 3904 232 3960 192 4064 192 c 0
 4440 192 4912 768 5112 1336 c 1
 5216 1304 l 1
2216 2576 m 1
 2344 2504 l 1
 2360 2208 2352 2040 2568 2040 c 0
 2856 2040 2936 2384 3144 2896 c 0
 3368 3440 3760 3760 4240 3760 c 0
 4760 3760 5296 3368 5296 2792 c 0
 5296 2352 4968 1992 4528 1992 c 0
 4088 1992 3808 2368 3808 2712 c 0
 3808 3096 4144 3408 4528 3408 c 0
 4752 3408 4960 3296 5016 3184 c 1
 4928 3440 4600 3648 4232 3648 c 0
 3856 3648 3472 3400 3256 2856 c 0
 3040 2312 2960 1936 2568 1936 c 0
 2296 1936 2216 2160 2216 2576 c 1
1184 3568 m 1
 496 3568 l 1
 496 3680 l 1
 2736 3680 l 1
 1880 0 l 1
 360 0 l 1
 1184 3568 l 1
EndSplineSet
EndChar

StartChar: breve
Encoding: 728 728 307
GlifName: breve
Width: 2560
VWidth: 9240
Flags: HMW
LayerCount: 2
Fore
SplineSet
1392 6072 m 1
 1352 5776 1728 5640 2160 5640 c 0
 2592 5640 3120 5680 3248 6072 c 1
 3360 6072 l 1
 3280 5584 3040 4560 2080 4560 c 0
 1200 4560 1200 5584 1280 6072 c 1
 1392 6072 l 1
EndSplineSet
EndChar

StartChar: thorn
Encoding: 254 254 318
GlifName: thorn
Width: 5200
VWidth: 9240
Flags: HMW
LayerCount: 2
Fore
SplineSet
2112 1160 m 0
 2112 736 2216 408 2416 408 c 0
 2768 408 3368 1672 3368 2744 c 0
 3368 3048 3256 3256 3088 3256 c 0
 2640 3256 2112 1992 2112 1160 c 0
2024 1160 m 0
 2024 2024 2600 3752 3728 3752 c 0
 4280 3752 5000 3432 5000 2392 c 0
 5000 792 3744 -80 2920 -80 c 0
 2312 -80 2024 424 2024 1160 c 0
-760 -1888 m 1
 1840 -1888 l 1
 1840 -2000 l 1
 -760 -2000 l 1
 -760 -1888 l 1
1576 5888 m 1
 1032 5888 l 1
 1032 6000 l 1
 3128 6000 l 1
 2272 2312 l 1
 2104 1736 l 1
 2056 1304 l 1
 1280 -2000 l 1
 -240 -2000 l 1
 1576 5888 l 1
EndSplineSet
EndChar

StartChar: Thorn
Encoding: 222 222 319
GlifName: T_horn
Width: 5880
Flags: HMW
LayerCount: 2
Fore
SplineSet
3000 1440 m 2
 2120 1440 l 1
 2120 1552 l 1
 2600 1552 l 2
 3528 1552 3896 2968 3896 3840 c 0
 3896 4312 3768 4688 3400 4688 c 2
 2080 4688 l 1
 2080 4800 l 1
 3800 4800 l 2
 4848 4800 5720 4480 5720 3520 c 0
 5720 2320 4608 1440 3000 1440 c 2
-360 112 m 1
 2800 112 l 1
 2800 0 l 1
 -360 0 l 1
 -360 112 l 1
1000 6000 m 1
 4160 6000 l 1
 4160 5888 l 1
 1000 5888 l 1
 1000 6000 l 1
1680 6000 m 1
 3400 6000 l 1
 2000 0 l 1
 280 0 l 1
 1680 6000 l 1
EndSplineSet
EndChar

StartChar: Lslash
Encoding: 321 321 324
GlifName: L_slash
Width: 5216
Flags: HMW
LayerCount: 2
Fore
SplineSet
360 2880 m 1
 3920 4640 l 1
 3920 4504 l 1
 360 2744 l 1
 360 2880 l 1
EndSplineSet
Refer: 23 76 N 1 0 0 1 0 0 2
EndChar

StartChar: lslash
Encoding: 322 322 325
GlifName: lslash
Width: 3280
VWidth: 9240
Flags: HMW
LayerCount: 2
Fore
SplineSet
224 2880 m 1
 3464 4640 l 1
 3464 4504 l 1
 224 2744 l 1
 224 2880 l 1
EndSplineSet
Refer: 49 108 N 1 0 0 1 0 0 2
EndChar

StartChar: eth
Encoding: 240 240 329
GlifName: eth
Width: 5280
VWidth: 9240
Flags: HMW
LayerCount: 2
Fore
SplineSet
2080 5040 m 1
 5760 5040 l 1
 5760 4928 l 1
 2080 4928 l 1
 2080 5040 l 1
5256 3040 m 0
 5256 1360 3736 -80 2288 -80 c 0
 1080 -80 320 480 320 1520 c 0
 320 3040 1824 3920 2792 3920 c 0
 3464 3920 3560 3656 3480 2720 c 1
 3392 3280 l 1
 3392 3600 3264 3728 3128 3728 c 0
 2496 3728 1976 1552 1976 720 c 0
 1976 208 2032 32 2264 32 c 0
 2736 32 3392 1968 3392 3280 c 1
 3456 3072 l 1
 3640 4800 3272 5984 1960 5984 c 1
 1960 6080 l 1
 4144 6080 5256 4824 5256 3040 c 0
EndSplineSet
EndChar

StartChar: OE
Encoding: 338 338 330
GlifName: O_E_
Width: 8632
Flags: HMW
LayerCount: 2
Fore
SplineSet
4312 6000 m 1
 4312 5840 l 1
 3000 5840 2152 3096 2152 1240 c 0
 2152 504 2368 160 2960 160 c 1
 2960 0 l 1
 1736 0 392 416 392 1960 c 0
 392 4464 2288 6000 4312 6000 c 1
EndSplineSet
Refer: 16 69 N 1 0 0 1 3360 0 2
EndChar

StartChar: germandbls
Encoding: 223 223 332
GlifName: germandbls
Width: 6808
VWidth: 9240
Flags: HMW
LayerCount: 2
Fore
SplineSet
6568 1920 m 0
 6568 400 5096 -80 3968 -80 c 0
 3096 -80 2784 592 2784 1248 c 0
 2784 1776 3120 2248 3640 2248 c 0
 4120 2248 4472 1928 4472 1480 c 0
 4472 1064 4000 720 3608 720 c 0
 3200 720 3064 864 2912 1008 c 1
 2976 512 3296 48 3888 48 c 0
 4600 48 4880 1248 4880 2000 c 0
 4880 2752 4576 3192 4104 3192 c 1
 4104 3272 l 1
 5552 3272 6568 2960 6568 1920 c 0
-200 112 m 1
 2920 112 l 1
 2920 0 l 1
 -200 0 l 1
 -200 112 l 1
4104 3216 m 1
 4104 3296 l 1
 5136 3296 5360 4376 5360 5048 c 0
 5360 5624 5096 5984 4744 5984 c 0
 3592 5984 3328 4928 3080 3848 c 2
 2200 0 l 1
 520 0 l 1
 1440 3928 l 2
 1784 5464 3040 6080 4824 6080 c 0
 5888 6080 7088 5792 7088 4808 c 0
 7088 3768 5712 3216 4104 3216 c 1
EndSplineSet
EndChar

StartChar: uni0212
Encoding: 530 530 333
GlifName: uni0212
Width: 6560
VWidth: 0
Flags: HMW
LayerCount: 2
Fore
SplineSet
4728 6560 m 1
 4768 6856 4392 6992 3960 6992 c 0
 3528 6992 3000 6952 2872 6560 c 1
 2760 6560 l 1
 2840 7048 3080 8072 4040 8072 c 0
 4920 8072 4920 7048 4840 6560 c 1
 4728 6560 l 1
EndSplineSet
Refer: 29 82 N 1 0 0 1 0 0 3
EndChar

StartChar: uni0213
Encoding: 531 531 334
GlifName: uni0213
Width: 4504
VWidth: 0
Flags: HMW
LayerCount: 2
Fore
SplineSet
3720 4320 m 1
 3760 4616 3376 4752 2944 4752 c 0
 2512 4752 1984 4712 1856 4320 c 1
 1744 4320 l 1
 1824 4808 2064 5832 3024 5832 c 0
 3904 5832 3904 4808 3824 4320 c 1
 3720 4320 l 1
EndSplineSet
Refer: 55 114 N 1 0 0 1 0 0 3
EndChar

StartChar: circumflex
Encoding: 710 710 335
GlifName: circumflex
Width: 3880
Flags: HMW
LayerCount: 2
Fore
SplineSet
2976 5400 m 1
 1336 4824 l 1
 1280 4880 l 1
 2576 6160 l 1
 3416 6160 l 1
 4360 4880 l 1
 4304 4824 l 1
 2976 5400 l 1
EndSplineSet
EndChar

StartChar: caron
Encoding: 711 711 336
GlifName: caron
Width: 3880
Flags: HMW
LayerCount: 2
Fore
SplineSet
2520 5880 m 1
 4160 6456 l 1
 4216 6400 l 1
 2920 5120 l 1
 2080 5120 l 1
 1136 6400 l 1
 1192 6456 l 1
 2520 5880 l 1
EndSplineSet
EndChar

StartChar: pi
Encoding: 960 960 337
GlifName: pi
Width: 5608
VWidth: 9240
Flags: HMW
LayerCount: 2
Fore
SplineSet
992 -80 m 0
 584 -80 280 184 280 544 c 0
 280 1648 1568 744 2080 2392 c 2
 2456 3600 l 1
 2904 3600 l 1
 2464 1944 l 2
 2152 760 2096 -80 992 -80 c 0
5168 824 m 1
 4904 264 4488 -80 3744 -80 c 0
 2968 -80 2600 512 2728 1032 c 2
 3328 3360 l 1
 5008 3360 l 1
 4328 856 l 2
 4248 560 4376 464 4568 464 c 0
 4776 464 4936 592 5088 872 c 1
 5168 824 l 1
5728 3680 m 1
 5288 2160 l 1
 600 2160 l 1
 456 1560 l 1
 344 1560 l 1
 856 3680 l 1
 5728 3680 l 1
EndSplineSet
EndChar

StartChar: uni1E9E
Encoding: 7838 7838 338
GlifName: uni1E_9E_
Width: 7288
VWidth: 9240
Flags: HMW
LayerCount: 2
Fore
SplineSet
3024 1248 m 0
 3024 1776 3360 2248 3880 2248 c 0
 4360 2248 4712 1928 4712 1480 c 0
 4712 1064 4248 720 3856 720 c 0
 3520 720 3320 856 3184 1008 c 1
 3312 352 3776 40 4368 40 c 0
 5080 40 5360 1248 5360 2000 c 0
 5360 2752 5056 3192 4584 3192 c 1
 4584 3272 l 1
 6032 3272 7048 2960 7048 1920 c 0
 7048 400 5576 -80 4448 -80 c 0
 3456 -80 3024 528 3024 1248 c 0
-200 112 m 1
 2920 112 l 1
 2920 0 l 1
 -200 0 l 1
 -200 112 l 1
4584 3216 m 1
 4584 3296 l 1
 5616 3296 5840 4376 5840 5048 c 0
 5840 5624 5496 5984 4984 5984 c 0
 3672 5984 3328 4928 3080 3848 c 2
 2200 0 l 1
 520 0 l 1
 1440 3928 l 2
 1784 5464 3040 6080 5064 6080 c 0
 6368 6080 7568 5792 7568 4808 c 0
 7568 3768 6192 3216 4584 3216 c 1
EndSplineSet
EndChar

StartChar: uni203D
Encoding: 8253 8253 339
GlifName: uni203D_
Width: 5120
Flags: HMW
LayerCount: 2
Fore
SplineSet
3664 4472 m 0
 3536 3616 2688 3424 2368 2224 c 1
 2256 2224 l 1
 2496 3424 2240 3544 2240 4152 c 0
 2240 4760 2440 5184 2992 5184 c 0
 3432 5184 3728 4880 3664 4472 c 0
4032 4880 m 0
 4032 5472 3880 5960 3088 5960 c 0
 2176 5960 1208 5392 936 4976 c 1
 1064 5064 1320 5136 1464 5136 c 0
 1776 5136 2112 4880 2112 4400 c 0
 2112 3840 1616 3592 1256 3592 c 0
 856 3592 560 3920 560 4408 c 0
 560 5224 1952 6080 3168 6080 c 0
 4376 6080 5480 5760 5480 4720 c 0
 5480 3440 3848 2680 2400 2680 c 1
 2400 2752 l 1
 3336 3000 4032 3896 4032 4880 c 0
EndSplineSet
Refer: 1 46 N 1 0 0 1 872 0 2
EndChar

StartChar: R.alt
Encoding: 65536 -1 340
GlifName: R_.alt
Width: 6480
Flags: HMW
LayerCount: 2
Fore
SplineSet
5840 0 m 1
 5712 0 5168 0 4880 0 c 0
 2296 0 4888 3024 3000 3024 c 2
 2560 3024 l 1
 2560 3080 l 1
 3560 3080 l 2
 6704 3080 4576 112 5640 112 c 0
 5728 112 5840 112 5840 112 c 1
 5840 0 l 1
1840 6000 m 1
 3560 6000 l 1
 2160 0 l 1
 440 0 l 1
 1840 6000 l 1
-280 112 m 1
 3040 112 l 1
 3040 0 l 1
 -280 0 l 1
 -280 112 l 1
3480 3064 m 2
 2560 3064 l 1
 2560 3136 l 1
 3080 3136 l 2
 4248 3136 4520 4488 4520 5120 c 0
 4520 5512 4328 5888 3720 5888 c 2
 1040 5888 l 1
 1040 6000 l 1
 4280 6000 l 2
 5328 6000 6240 5680 6240 4800 c 0
 6240 3680 5088 3064 3480 3064 c 2
EndSplineSet
EndChar

StartChar: J.alt
Encoding: 65537 -1 341
GlifName: J_.alt
Width: 5768
Flags: HMW
LayerCount: 2
Fore
SplineSet
3168 6000 m 1
 6688 6000 l 1
 6688 5888 l 1
 3168 5888 l 1
 3168 6000 l 1
4128 6000 m 1
 5888 6000 l 1
 5008 2240 l 2
 4720 1024 2976 -80 1688 -80 c 0
 832 -80 40 512 40 1472 c 0
 40 2208 496 2720 1136 2720 c 0
 1736 2720 2144 2336 2144 1728 c 0
 2144 1208 1688 744 1096 744 c 0
 624 744 256 1088 184 1256 c 1
 224 616 904 32 1688 32 c 0
 2656 32 3016 928 3248 2000 c 2
 4128 6000 l 1
EndSplineSet
EndChar

StartChar: four.alt
Encoding: 65538 -1 342
GlifName: four.alt
Width: 5720
VWidth: 9240
Flags: HMW
LayerCount: 2
Fore
SplineSet
5120 3984 m 1
 4232 -8 l 1
 2512 -8 l 1
 3280 3424 l 1
 3840 3424 4720 3744 5120 3984 c 1
4896 112 m 1
 4896 0 l 1
 1816 0 l 1
 1816 112 l 1
 4896 112 l 1
384 1616 m 1
 5320 1616 l 1
 5320 1504 l 1
 120 1504 l 1
 1480 3104 3200 4720 3600 6000 c 1
 5504 6000 l 1
 5272 4520 1504 2928 384 1616 c 1
EndSplineSet
EndChar

StartChar: fj.lig
Encoding: 65539 -1 343
GlifName: fj.lig
Width: 6272
VWidth: 9240
Flags: HMW
LayerCount: 2
Fore
SplineSet
3368 560 m 2
 4072 3568 l 1
 688 3568 l 1
 688 3680 l 1
 5624 3680 l 1
 4928 304 l 2
 4720 -696 3552 -1680 2512 -1680 c 0
 1784 -1680 1128 -1224 1128 -688 c 0
 1128 -200 1544 168 2024 168 c 0
 2464 168 2832 -160 2832 -536 c 0
 2832 -992 2440 -1360 2008 -1360 c 0
 1872 -1360 1696 -1304 1648 -1200 c 1
 1776 -1424 2128 -1544 2472 -1544 c 0
 3272 -1544 3144 -400 3368 560 c 2
5192 5584 m 1
 5088 5792 4744 5952 4320 5952 c 0
 3680 5952 3096 5296 2928 4320 c 2
 2160 -96 l 2
 1888 -1648 816 -2080 -224 -2080 c 0
 -1112 -2080 -1640 -1544 -1640 -1048 c 0
 -1640 -560 -1352 -232 -872 -232 c 0
 -432 -232 -16 -504 -16 -984 c 0
 -16 -1464 -392 -1776 -816 -1776 c 0
 -1008 -1776 -1168 -1640 -1200 -1584 c 1
 -1112 -1744 -776 -1952 -408 -1952 c 0
 152 -1952 496 -1296 664 -320 c 2
 1432 4096 l 2
 1704 5648 2936 6080 4136 6080 c 0
 5184 6080 5632 5544 5632 5048 c 0
 5632 4560 5344 4232 4864 4232 c 0
 4424 4232 4008 4504 4008 4984 c 0
 4008 5464 4384 5776 4808 5776 c 0
 4976 5776 5120 5672 5192 5584 c 1
EndSplineSet
LCarets2: 1 0
Ligature2: "'liga' Standard Ligatures lookup 0-1" f j
EndChar

StartChar: v.alt
Encoding: 65540 -1 344
Width: 4848
VWidth: 9240
Flags: HW
LayerCount: 2
Fore
SplineSet
2120 3800 m 1
 2160 3728 l 1
 1832 3544 1720 3360 1720 3040 c 0
 1720 2400 2672 2072 2672 1080 c 0
 2672 944 2640 600 2624 416 c 1
 3832 1040 4696 1696 4696 2752 c 0
 4696 2768 4696 2784 4688 2800 c 1
 4648 2592 4336 2040 3776 2040 c 0
 3216 2040 2896 2456 2896 2896 c 0
 2896 3376 3248 3752 3784 3752 c 0
 4528 3752 4808 3240 4808 2752 c 0
 4808 1400 3432 664 1872 -96 c 1
 1024 32 l 1
 1040 208 1144 688 1144 848 c 0
 1144 1464 240 1992 240 2584 c 0
 240 3224 1080 3528 2120 3800 c 1
EndSplineSet
EndChar

StartChar: uni2116
Encoding: 8470 8470 345
Width: 9648
Flags: HW
LayerCount: 2
Fore
SplineSet
6912 2576 m 1
 9072 2576 l 1
 9064 2464 l 1
 6904 2464 l 1
 6912 2576 l 1
8824 6080 m 0
 9576 6080 10120 5736 10120 4992 c 0
 10120 3696 9088 3040 8120 3040 c 0
 7368 3040 6824 3384 6824 4128 c 0
 6824 5424 7856 6080 8824 6080 c 0
7896 3600 m 0
 7896 3280 7984 3152 8160 3152 c 0
 8568 3152 9048 4688 9048 5520 c 0
 9048 5840 8960 5968 8784 5968 c 0
 8376 5968 7896 4432 7896 3600 c 0
EndSplineSet
Refer: 25 78 N 1 0 0 1 208 0 2
EndChar

StartChar: Euro
Encoding: 8364 8364 346
Width: 6560
Flags: HW
LayerCount: 2
Fore
SplineSet
6336 5288 m 1
 6200 5496 5720 5952 4960 5952 c 0
 3448 5952 2792 3032 2792 1320 c 0
 2792 408 3328 88 3880 88 c 0
 4568 88 5456 712 5744 1424 c 1
 5864 1424 l 1
 5576 648 4592 -80 3624 -80 c 0
 2496 -80 1064 520 1064 2200 c 0
 1064 4520 2784 6080 4872 6080 c 0
 5848 6080 6760 5344 6760 4688 c 0
 6760 4120 6304 3792 5904 3792 c 0
 5544 3792 5048 4080 5048 4640 c 0
 5048 5160 5520 5480 5912 5480 c 0
 6088 5480 6264 5384 6336 5288 c 1
EndSplineSet
Refer: 88 61 N 1 0 0 1 -240 -560 2
EndChar
